<svg width="103" height="56" viewBox="0 0 103 56" fill="none" xmlns="http://www.w3.org/2000/svg">
<path d="M11.328 30.8802V29.2242C11.328 26.9922 12.12 25.4802 14.64 25.4802C16.944 25.4802 17.808 26.9922 17.808 29.2242V42.6162C17.808 44.9202 16.656 46.2882 14.424 46.2882C12.192 46.2882 11.04 44.9202 11.04 42.6162V36.0642H0.167969V43.6962C0.167969 50.6082 3.55197 55.7202 13.776 55.7202H15.576C25.152 55.7202 29.328 49.9602 29.328 42.6882V26.4882C29.328 20.4402 26.592 16.4082 20.544 16.4082H20.184C14.928 16.4082 12.048 19.9362 11.256 21.1602V11.1522H28.248V1.43218H0.743969V30.8802H11.328Z" fill="#EF6F2E"/>
<path d="M66.6408 15.6882C66.6408 6.25618 62.3928 0.78418 52.2408 0.78418H50.2968C40.1448 0.78418 35.8968 6.18418 35.8968 15.6882V40.9602C35.8968 50.5362 40.5048 55.7202 50.3688 55.7202H52.2408C61.6728 55.7202 66.6408 50.7522 66.6408 40.9602V15.6882ZM55.1928 40.8162C55.1928 44.0562 54.1128 45.9282 51.3048 45.9282C48.4968 45.9282 47.3448 44.0562 47.3448 40.8162V15.6882C47.3448 12.0162 48.5688 10.5042 51.2328 10.5042C53.8968 10.5042 55.1928 12.0162 55.1928 15.6882V40.8162Z" fill="#EF6F2E"/>
<path d="M102.018 36.6402V29.2962H91.5776V18.0642H83.4416V29.2962H73.0016V36.6402H83.4416V47.8722H91.5776V36.6402H102.018Z" fill="#EF6F2E"/>
<mask id="mask0_322_355" style="mask-type:alpha" maskUnits="userSpaceOnUse" x="0" y="0" width="103" height="56">
<path d="M11.328 30.8802V29.2242C11.328 26.9922 12.12 25.4802 14.64 25.4802C16.944 25.4802 17.808 26.9922 17.808 29.2242V42.6162C17.808 44.9202 16.656 46.2882 14.424 46.2882C12.192 46.2882 11.04 44.9202 11.04 42.6162V36.0642H0.167969V43.6962C0.167969 50.6082 3.55197 55.7202 13.776 55.7202H15.576C25.152 55.7202 29.328 49.9602 29.328 42.6882V26.4882C29.328 20.4402 26.592 16.4082 20.544 16.4082H20.184C14.928 16.4082 12.048 19.9362 11.256 21.1602V11.1522H28.248V1.43218H0.743969V30.8802H11.328Z" fill="#EF6F2E"/>
<path d="M66.6408 15.6882C66.6408 6.25618 62.3928 0.78418 52.2408 0.78418H50.2968C40.1448 0.78418 35.8968 6.18418 35.8968 15.6882V40.9602C35.8968 50.5362 40.5048 55.7202 50.3688 55.7202H52.2408C61.6728 55.7202 66.6408 50.7522 66.6408 40.9602V15.6882ZM55.1928 40.8162C55.1928 44.0562 54.1128 45.9282 51.3048 45.9282C48.4968 45.9282 47.3448 44.0562 47.3448 40.8162V15.6882C47.3448 12.0162 48.5688 10.5042 51.2328 10.5042C53.8968 10.5042 55.1928 12.0162 55.1928 15.6882V40.8162Z" fill="#EF6F2E"/>
<path d="M102.018 36.6402V29.2962H91.5776V18.0642H83.4416V29.2962H73.0016V36.6402H83.4416V47.8722H91.5776V36.6402H102.018Z" fill="#EF6F2E"/>
</mask>
<g mask="url(#mask0_322_355)">
<rect x="-48.5" y="-245" width="199" height="399" transform="rotate(30 -48.5 -245)" fill="#3D342D"/>
</g>
</svg>
