<svg width="29" height="54" viewBox="0 0 29 54" fill="none" xmlns="http://www.w3.org/2000/svg">
<path d="M0.953125 0.432129V16.8481H10.9611V9.14413H19.5291C19.5291 11.1601 18.6651 14.3281 13.1211 28.9441C9.44913 39.1681 8.22513 44.4961 8.22513 50.6881V54.0001H20.9691V49.5361C20.9691 42.9841 22.4811 35.8561 24.5691 26.5681C27.0171 15.9121 28.3131 11.4481 28.8891 9.07213V0.432129H0.953125Z" fill="#EF6F2E"/>
<mask id="mask0_215_310" style="mask-type:alpha" maskUnits="userSpaceOnUse" x="0" y="0" width="29" height="55">
<path d="M0.953125 0.432129V16.8481H10.9611V9.14413H19.5291C19.5291 11.1601 18.6651 14.3281 13.1211 28.9441C9.44913 39.1681 8.22513 44.4961 8.22513 50.6881V54.0001H20.9691V49.5361C20.9691 42.9841 22.4811 35.8561 24.5691 26.5681C27.0171 15.9121 28.3131 11.4481 28.8891 9.07213V0.432129H0.953125Z" fill="#EF6F2E"/>
</mask>
<g mask="url(#mask0_215_310)">
<rect x="-84.5" y="-184" width="199" height="399" transform="rotate(30 -84.5 -184)" fill="#3D342D"/>
</g>
</svg>
