<svg width="20" height="20" viewBox="0 0 20 20" fill="none" xmlns="http://www.w3.org/2000/svg">
<path fill-rule="evenodd" clip-rule="evenodd" d="M15.625 17.5H4.375C3.34013 17.5 2.5 16.6599 2.5 15.625V7.5C2.5 6.986 2.6555 6.508 2.92188 6.11063L2.92212 6.11013C2.94262 6.0795 2.96388 6.04938 2.98575 6.01963L4.93237 3.25063C5.20675 2.80063 5.70225 2.5 6.26737 2.5H13.7326C14.2718 2.5 14.7474 2.7735 15.0283 3.18925L17.0169 6.02325C17.0377 6.05175 17.0581 6.08075 17.0779 6.11013L17.0781 6.11063C17.3445 6.508 17.5 6.986 17.5 7.5V15.625C17.5 16.6599 16.6599 17.5 15.625 17.5ZM10.4616 8.125H9.53838C9.23925 8.125 8.9965 8.36787 8.9965 8.66687V11.25H7.5C7.155 11.25 6.875 11.53 6.875 11.875C6.875 12.0227 6.92638 12.1585 7.01213 12.2655L9.49862 15.3731C9.50725 15.3845 9.51612 15.3958 9.52537 15.4065L9.5255 15.4066C9.64012 15.5403 9.81025 15.625 10 15.625C10.1898 15.625 10.3599 15.5403 10.4745 15.4066L10.4746 15.4065C10.4839 15.3958 10.4928 15.3845 10.5014 15.3731L12.9879 12.2655C13.0736 12.1585 13.125 12.0227 13.125 11.875C13.125 11.53 12.845 11.25 12.5 11.25H11.0035V8.66687C11.0035 8.36787 10.7607 8.125 10.4616 8.125ZM10 4.38913H6.85212C6.72862 4.38913 6.61613 4.4605 6.5635 4.57238C6.42113 4.875 6.13413 5.48513 5.94825 5.88013C5.9105 5.9605 5.91638 6.05462 5.964 6.12962C6.0115 6.20462 6.09413 6.25 6.183 6.25H13.817C13.9059 6.25 13.9885 6.20462 14.036 6.12962C14.0836 6.05462 14.0895 5.9605 14.0517 5.88013C13.8659 5.48513 13.5789 4.875 13.4365 4.57238C13.3839 4.4605 13.2714 4.38913 13.1479 4.38913H10Z" fill="white"/>
</svg>
