<svg width="160" height="38" viewBox="0 0 160 38" fill="none" xmlns="http://www.w3.org/2000/svg">
<g clip-path="url(#clip0_207_2104)">
<path d="M56 13.1729H66.3002V14.6122H61.9024V25.6668H60.3689V14.6122H56V13.1729Z" fill="white"/>
<path d="M68.3545 13.1729H75.4431V14.6122H69.8879V18.6425H74.8934V20.0819H69.8879V24.2274H75.6167V25.6668H68.3545V13.1729Z" fill="white"/>
<path d="M78.6836 25.6668V13.1728C79.378 13.1728 81.1718 13.144 81.953 13.144C85.5407 13.144 86.5823 15.0728 86.5823 17.0016C86.5823 19.0456 85.1357 20.9168 82.0688 20.9168C81.5769 20.9168 80.8246 20.888 80.1881 20.8592V25.6668H78.6836ZM80.1881 14.6122V19.4198C80.7957 19.4774 81.3744 19.5062 82.0109 19.5062C83.8626 19.5062 84.9621 18.5562 84.9621 17.0016C84.9621 15.5334 84.0651 14.5834 82.0688 14.5834C81.6058 14.5834 80.7957 14.5834 80.1881 14.6122Z" fill="white"/>
<path d="M89.3887 13.1729H90.9221V24.2274H97.0849V25.6668H89.3887V13.1729Z" fill="white"/>
<path d="M104.058 13C107.704 13 110.452 15.6197 110.452 19.4197C110.452 23.1333 107.704 25.8394 104.058 25.8394C100.413 25.8394 97.6641 23.2197 97.6641 19.4197C97.6641 15.8212 100.355 13 104.058 13ZM104.058 24.4C106.923 24.4 108.832 22.2121 108.832 19.4197C108.832 16.5121 106.749 14.4394 104.058 14.4394C101.339 14.4394 99.2843 16.5121 99.2843 19.4197C99.2843 22.2697 101.396 24.4 104.058 24.4Z" fill="white"/>
<path d="M113.259 13.1728H113.49C114.3 13.1728 115.689 13.1152 116.702 13.1152C121.707 13.1152 123.733 15.994 123.733 19.2471C123.733 22.788 121.331 25.6955 116.557 25.6955C115.718 25.6955 114.532 25.6667 113.461 25.6667H113.259V13.1728ZM114.763 14.6122V24.2274C115.573 24.2561 116.355 24.2561 116.586 24.2561C120.174 24.2561 122.112 22.1546 122.112 19.2471C122.112 16.541 120.29 14.5258 116.644 14.5258C115.892 14.5546 115.4 14.5834 114.763 14.6122Z" fill="white"/>
<path d="M126.48 25.6668V13.1728C127.175 13.1728 129.49 13.144 129.837 13.144C133.251 13.144 134.292 14.8425 134.292 16.8577C134.292 17.6637 134.032 18.441 133.54 19.1031C133.048 19.7365 132.354 20.1971 131.573 20.3986L135.768 25.6668H133.916L130.068 20.6577H128.014V25.6668H126.48ZM128.014 14.6122V19.2471H129.866C131.312 19.2471 132.701 18.3546 132.701 16.8865C132.701 15.591 131.978 14.5834 129.75 14.5834C129.374 14.5834 128.593 14.5834 128.014 14.6122Z" fill="white"/>
<path d="M142.944 13C146.59 13 149.338 15.6197 149.338 19.4197C149.338 23.1333 146.59 25.8394 142.944 25.8394C139.298 25.8394 136.55 23.2197 136.55 19.4197C136.55 15.8212 139.212 13 142.944 13ZM142.944 24.4C145.808 24.4 147.718 22.2121 147.718 19.4197C147.718 16.5121 145.635 14.4394 142.944 14.4394C140.224 14.4394 138.17 16.5121 138.17 19.4197C138.17 22.2697 140.253 24.4 142.944 24.4Z" fill="white"/>
<path d="M156.137 25.7244H155.009L149.743 13.1729H151.363L155.617 23.4501L159.754 13.1729H161.287L156.137 25.7244Z" fill="white"/>
<path d="M0.694356 3.19545C0.694356 3.48333 0.665423 3.8 0.665423 4.05909C0.665423 4.05909 0.63649 4.05909 0.665423 4.05909C0.694356 3.42576 0.665423 2.82121 0.694356 2.18788C0.723289 1.61212 0.781155 1.03636 0.839022 0.460606V0.431818V0.345455C0.781155 0.230303 0.781155 0.115152 0.781155 0H0.723289C0.723289 0.287879 0.694356 0.575758 0.665423 0.863636C0.520757 3.16667 0.549691 5.4697 0.694356 7.77273H0.867955C0.839022 7.19697 0.810088 6.62121 0.781155 6.04545C0.723289 5.09545 0.694356 4.14545 0.694356 3.19545Z" fill="white"/>
<path d="M10.1559 14.1063C9.8955 14.3941 9.72191 14.7684 9.63511 15.1426C9.51937 15.4305 9.46151 15.7472 9.49044 16.0638C9.46151 16.2078 9.43257 16.3805 9.49044 16.5532C9.51937 16.6972 9.57724 16.8699 9.69297 16.985C9.8087 17.129 9.95337 17.2441 10.1559 17.3017C10.3295 17.3593 10.532 17.3305 10.7056 17.2441C11.0239 17.1002 11.1396 16.6972 11.1686 16.3805C11.2264 15.9199 11.2264 15.4881 11.1686 15.0275C11.0818 14.5957 10.7346 13.5305 10.1559 14.1063ZM10.9371 16.6684C10.7635 17.2441 10.127 17.3017 9.77977 16.8411C9.60617 16.6108 9.66404 16.2366 9.66404 15.9487C9.66404 15.8911 9.66404 15.8335 9.66404 15.776C9.69297 15.6608 9.69297 15.5744 9.72191 15.4593L9.75084 15.3154C9.83764 14.9411 10.0112 14.5669 10.2427 14.2502C10.5031 13.9335 10.7635 14.2214 10.8792 14.5093C10.995 14.8835 11.0528 15.2866 11.0528 15.6608C11.0239 16.0063 10.995 16.3229 10.9371 16.6684Z" fill="white"/>
<path d="M9.98212 18.4819H9.89532C9.86639 18.5395 9.95319 18.5107 10.04 18.4819H9.98212Z" fill="white"/>
<path d="M9.11426 17.4165V17.5604L9.14319 17.618C9.14319 17.5604 9.11426 17.4741 9.11426 17.4165Z" fill="white"/>
<path d="M9.31618 14.5666C9.22938 14.9984 9.14258 15.459 9.14258 15.9196C9.20044 15.3439 9.31618 14.7969 9.48977 14.25C9.63444 13.8181 9.77911 13.3863 9.98164 12.9545C10.1263 12.609 10.3578 12.1196 10.7339 12.0333C10.9943 11.9757 11.1968 12.2636 11.2836 12.4939C11.3415 12.7818 11.3704 13.0984 11.3126 13.3863C11.2836 14.0484 11.3126 14.7106 11.4283 15.3439C11.4862 15.6893 11.5151 16.0348 11.4862 16.3803C11.5151 16.2075 11.5151 16.0348 11.544 15.8621C11.6019 16.2363 11.6019 16.6393 11.544 17.0136C11.4862 17.2727 11.3704 17.503 11.2258 17.7045C11.2258 17.7333 11.1968 17.7909 11.1968 17.8197C11.6598 17.2151 11.7176 16.3227 11.6308 15.5454C11.5151 14.7969 11.4862 14.0772 11.5151 13.3287C11.544 12.8393 11.573 12.1772 11.0522 11.9469C10.2999 11.6015 9.83697 13.0121 9.63444 13.5015C9.43191 14.0196 9.28724 14.5378 9.14258 15.056V15.2863C9.20044 15.056 9.25831 14.8257 9.31618 14.6242C9.31618 14.5378 9.34511 14.5666 9.31618 14.5666Z" fill="white"/>
<path d="M9.11426 19.1152C9.20106 19.1728 9.31679 19.2304 9.40359 19.2592C9.31679 19.2304 9.20106 19.1728 9.11426 19.1152Z" fill="white"/>
<path d="M11.1686 9.41377C11.892 9.18347 12.2391 10.1335 12.297 10.6516C12.3259 11.285 12.297 11.9471 12.1813 12.5804C12.0945 13.1274 12.0945 13.7032 12.1234 14.2501C12.1523 14.5956 12.1813 14.9698 12.2391 15.3153C12.2102 15.085 12.2102 14.8259 12.2102 14.5956C12.2102 14.5956 12.2102 14.5956 12.2102 14.5668C12.2102 14.5668 12.2102 14.5668 12.2391 14.5668C12.2391 14.5668 12.2391 14.5668 12.2681 14.5668C12.297 14.5668 12.2681 14.5668 12.2681 14.5956C12.3259 14.8547 12.3838 15.1138 12.4417 15.3729C12.3549 14.7683 12.297 14.135 12.297 13.5016C12.297 12.8683 12.4417 12.235 12.4995 11.6016C12.5574 10.7956 12.4706 9.01074 11.2265 9.24104C10.7346 9.3274 10.3296 9.75922 10.0692 10.1335C9.69303 10.6229 9.4037 11.1986 9.20117 11.7744V12.3213C9.37477 11.7168 9.63517 11.1123 9.98237 10.5653C10.1849 10.1335 10.6189 9.5865 11.1686 9.41377Z" fill="white"/>
<path d="M11.6306 18.4531C11.5728 18.5394 11.5149 18.597 11.457 18.6834C11.7753 18.4531 12.0357 18.1364 12.2093 17.7909C12.3829 17.4455 12.4697 17.0425 12.4697 16.6682C12.4408 17.0712 12.2961 17.4743 12.1225 17.8197C11.9489 18.0212 11.8042 18.2515 11.6306 18.4531Z" fill="white"/>
<path d="M9.14319 17.5317C9.14319 17.5029 9.14319 17.5029 9.14319 17.5317C9.14319 17.5029 9.17212 17.5029 9.14319 17.5317C9.14319 17.4741 9.11426 17.4453 9.11426 17.4453C9.11426 17.5893 9.14319 17.7332 9.20106 17.8771C9.20106 17.8483 9.20106 17.8196 9.20106 17.7908C9.17212 17.7044 9.14319 17.618 9.14319 17.5317Z" fill="white"/>
<path d="M11.1399 17.7909L11.111 17.8197C11.0242 18.0212 10.8795 18.1939 10.677 18.3091C10.5613 18.3955 10.4166 18.4242 10.3009 18.4242C10.1851 18.453 10.0405 18.453 9.92473 18.4242C9.809 18.3955 9.69326 18.3379 9.57753 18.2515C9.5486 18.2227 9.49073 18.1939 9.4618 18.1652C9.43287 18.1652 9.43287 18.1364 9.40393 18.1076L9.375 18.05C9.51967 18.2515 9.7222 18.3955 9.95366 18.453H10.0115H10.0983C10.3298 18.453 10.5613 18.3667 10.7349 18.2515C10.9374 18.1364 11.0821 17.9636 11.1978 17.7621C11.2267 17.7333 11.2267 17.6758 11.2267 17.647C11.1978 17.7045 11.1689 17.7333 11.1399 17.7909Z" fill="white"/>
<path d="M10.1555 19.3167C10.4737 19.2592 10.792 19.144 11.0524 18.9713C11.1971 18.8849 11.3128 18.7698 11.4285 18.6546C11.4864 18.597 11.5443 18.5107 11.6021 18.4243C11.2549 18.8561 10.7631 19.144 10.2134 19.2592C9.80829 19.3167 9.43216 19.2304 9.08496 19.0001V19.1152C9.17176 19.1728 9.25856 19.2016 9.37429 19.2592C9.66362 19.3455 9.89509 19.3455 10.1555 19.3167Z" fill="white"/>
<path d="M9.46157 18.1653C9.34584 18.0501 9.28797 17.935 9.23011 17.8198L9.20117 17.791C9.20117 17.8198 9.20117 17.8486 9.20117 17.8774C9.23011 17.9637 9.25904 18.0501 9.34584 18.1077L9.4037 18.1365C9.4037 18.1365 9.43264 18.1653 9.46157 18.1653Z" fill="white"/>
<path d="M10.5313 18.1941C10.4734 18.2516 10.3866 18.3092 10.2998 18.3092C10.3287 18.3092 10.3287 18.338 10.3577 18.338C10.3577 18.338 10.3577 18.338 10.3866 18.3668C10.3866 18.3668 10.3866 18.3668 10.3866 18.3956V18.4244C10.3866 18.4244 10.3866 18.4244 10.3577 18.4532L10.2998 18.4244C10.4445 18.4244 10.5602 18.3668 10.7049 18.3092C10.8785 18.1941 11.0521 18.0213 11.1389 17.8198C11.081 17.8774 11.0231 17.9062 10.9653 17.9638L10.9363 17.9926C10.7917 18.0501 10.6759 18.1365 10.5313 18.1941Z" fill="white"/>
<path d="M10.5312 18.1939C10.6759 18.1364 10.7916 18.0788 10.9363 17.9924L10.9653 17.9636C10.8495 18.05 10.7338 18.1076 10.5891 18.1363C10.5602 18.1363 10.5312 18.1651 10.5312 18.1939Z" fill="white"/>
<path d="M9.14258 17.5318C9.14258 17.6182 9.17151 17.7046 9.20044 17.7909L9.22938 17.8197C9.20044 17.7621 9.17151 17.6758 9.14258 17.5894C9.22938 17.7909 9.37404 17.9925 9.57657 18.1076C9.57657 18.1076 9.57658 18.1076 9.60551 18.1076C9.60551 18.1076 9.60551 18.1076 9.63444 18.1076C9.69231 18.1364 9.77911 18.1652 9.83697 18.194C9.89484 18.1652 9.98164 18.1652 10.0395 18.1652C9.89484 18.1364 9.77911 18.1076 9.66338 18.0212C9.46084 17.9061 9.28724 17.7334 9.14258 17.5318C9.14258 17.5031 9.14258 17.5031 9.14258 17.5318Z" fill="white"/>
<path d="M10.503 18.165C10.4162 18.1938 10.3583 18.2514 10.2715 18.3089C10.3583 18.2801 10.4451 18.2514 10.503 18.165C10.5319 18.165 10.5319 18.1362 10.5608 18.1074L10.503 18.165C10.503 18.1362 10.503 18.165 10.503 18.165Z" fill="white"/>
<path d="M9.83691 18.194C9.92371 18.2227 10.0105 18.2227 10.0973 18.2227L10.2709 18.194C10.1841 18.194 10.1262 18.194 10.0394 18.194C9.98158 18.1652 9.89478 18.1652 9.83691 18.194Z" fill="white"/>
<path d="M9.83657 18.1938C9.7787 18.165 9.6919 18.1362 9.63404 18.1074C9.63404 18.1074 9.63404 18.1074 9.60511 18.1074C9.60511 18.1074 9.6051 18.1074 9.57617 18.1074C9.6051 18.1362 9.63404 18.1362 9.66297 18.165C9.7787 18.2226 9.89444 18.2514 10.0102 18.2801C10.097 18.2801 10.1838 18.3089 10.2416 18.3089C10.3284 18.2801 10.3863 18.2226 10.4731 18.165C10.4731 18.165 10.4731 18.165 10.4731 18.1362C10.3863 18.165 10.3284 18.165 10.2416 18.165L10.068 18.1938C10.0102 18.2226 9.92337 18.2226 9.83657 18.1938Z" fill="white"/>
<path d="M10.3292 18.3378C10.3003 18.3378 10.3003 18.309 10.2713 18.309C10.1845 18.2802 10.0977 18.2802 10.0399 18.2802C9.92414 18.2515 9.8084 18.2227 9.69267 18.1651C9.66374 18.1651 9.6348 18.1363 9.60587 18.1075C9.40334 17.9636 9.25867 17.7908 9.17188 17.5605C9.20081 17.6469 9.22974 17.7045 9.25867 17.7908C9.31654 17.9348 9.37441 18.0499 9.49014 18.1363C9.51907 18.1651 9.54801 18.1939 9.60587 18.2227C9.7216 18.309 9.83734 18.3666 9.95307 18.3954C10.0688 18.4242 10.2135 18.4242 10.3292 18.3954L10.3871 18.3666C10.3581 18.3666 10.3581 18.3666 10.3292 18.3378C10.3581 18.3378 10.3581 18.3378 10.3292 18.3378Z" fill="white"/>
<path d="M9.17151 17.5029C9.28724 17.7332 9.46084 17.9059 9.69231 18.021C9.80804 18.0786 9.92377 18.1362 10.0684 18.165C10.1552 18.165 10.2131 18.165 10.2999 18.165C10.3867 18.165 10.4446 18.165 10.5314 18.1362L10.5892 18.1074C10.705 18.0786 10.8496 18.021 10.9654 17.9347C11.0232 17.9059 11.0811 17.8483 11.139 17.7907L11.1679 17.762C11.1968 17.7332 11.2258 17.7044 11.2547 17.6756C11.3994 17.4741 11.5151 17.2438 11.573 16.9847C11.6308 16.6104 11.6308 16.2074 11.573 15.8332C11.573 16.0059 11.544 16.1786 11.5151 16.3513C11.4862 16.5241 11.4862 16.6392 11.4572 16.7832C11.3994 17.0423 11.3126 17.2726 11.1679 17.4741C11.0811 17.5892 10.9943 17.7044 10.8786 17.762C10.7628 17.8195 10.6182 17.9059 10.4735 17.9347C10.3288 17.9635 10.1842 17.9635 10.0395 17.9347C9.89484 17.9059 9.77911 17.8483 9.66337 17.762C9.17151 17.4453 9.14258 16.7256 9.14258 16.2074C9.14258 16.0923 9.14258 16.0059 9.17151 15.8907C9.20044 15.4301 9.25831 14.9983 9.34511 14.5377C9.34511 14.5089 9.31618 14.5089 9.31618 14.5377C9.25831 14.7392 9.20044 14.9695 9.14258 15.1998V17.3877C9.14258 17.4453 9.14258 17.4741 9.17151 17.5029Z" fill="white"/>
<path d="M10.2426 19.2589C10.7924 19.1438 11.2842 18.8559 11.6314 18.4241C11.805 18.2225 11.9786 17.9922 12.1233 17.7619C12.3258 17.4165 12.4416 17.0135 12.4705 16.6104C12.4994 16.1786 12.4994 15.7756 12.4126 15.3438C12.3548 15.0847 12.2969 14.8256 12.239 14.5665C12.239 14.5665 12.239 14.5665 12.239 14.5377C12.239 14.5089 12.239 14.5377 12.2101 14.5377C12.2101 14.5377 12.2101 14.5377 12.1812 14.5377C12.1522 14.5377 12.1812 14.5377 12.1812 14.5665C12.1812 14.8256 12.2101 15.0559 12.2101 15.2862C12.268 16.0059 12.3548 16.7256 12.0076 17.4453C11.8629 17.7907 11.6314 18.1074 11.3421 18.3953C11.0528 18.6544 10.7345 18.8559 10.3584 18.9998C10.1558 19.0574 9.92438 19.0574 9.69292 19.0286C9.49039 18.971 9.28786 18.8847 9.11426 18.7119V18.9998C9.43252 19.2301 9.83759 19.3165 10.2426 19.2589Z" fill="white"/>
<path d="M12.1234 19.1728C12.731 18.0788 13.3386 16.9561 13.4833 15.6895C13.5411 14.9698 13.5122 14.2501 13.3965 13.5591C13.3386 13.0698 13.2518 12.6091 13.2229 12.1198C13.2229 12.2637 13.2229 12.4076 13.2229 12.5804C12.9914 12.3213 13.0782 11.947 13.0782 11.6591C13.0782 11.141 13.1071 10.6516 13.1361 10.1334C13.1361 9.70157 13.2229 9.12581 13.0782 8.72278C12.9914 8.52127 12.8757 8.31975 12.7021 8.17581C12.5863 8.06066 12.4417 8.00308 12.3259 7.88793V7.85915C12.4417 7.85915 12.5574 7.88793 12.6731 7.94551C12.5285 7.80157 12.3549 7.71521 12.1523 7.65763C11.2554 7.39854 10.4164 8.49248 10.0113 9.12581C9.72197 9.58642 9.46157 10.0758 9.25904 10.594L9.23011 10.6804V11.1122C9.54837 10.2198 10.0402 9.35612 10.6478 8.60763C10.9661 8.23339 11.4001 7.83036 11.9209 7.80157C12.6153 7.74399 13.0203 8.60763 13.0782 9.18339C13.1071 9.52884 13.1071 9.84551 13.0782 10.191C13.0493 10.6516 13.0493 11.0834 13.0782 11.544C13.1071 12.4076 13.2807 13.2137 13.3675 14.0485C13.4543 14.7682 13.4543 15.4879 13.3097 16.1788C13.1361 16.8698 12.8757 17.5319 12.5285 18.1652L12.4706 18.2516C12.6153 18.0501 12.7599 17.8485 12.8757 17.647C12.5285 18.4243 12.0945 19.1728 11.5737 19.8637C11.1976 20.3531 10.6189 20.8713 9.95343 20.7561C9.69303 20.7273 9.43264 20.6122 9.20117 20.4682V20.641C9.46157 20.7849 9.7509 20.9001 10.0402 20.9288C10.995 21.0728 11.6894 19.9213 12.1234 19.1728Z" fill="white"/>
<path d="M11.5158 19.8924C12.0077 19.2015 12.4417 18.4531 12.8178 17.6758C12.6731 17.8773 12.5285 18.0788 12.4127 18.2803C12.3259 18.4243 12.2391 18.5394 12.1523 18.6834C11.9787 18.9712 11.8052 19.2303 11.6316 19.4894C11.2844 20.0076 10.7636 20.5834 10.0981 20.6121C9.77983 20.6121 9.46157 20.4682 9.20117 20.2667V20.497C9.43264 20.6409 9.69304 20.7561 9.95343 20.7849C10.561 20.9 11.1108 20.3818 11.5158 19.8924Z" fill="white"/>
<path d="M11.1103 22.6561C12.2676 22.3682 12.9909 21.3318 13.4539 20.353C13.9747 19.1727 14.3508 17.9349 14.5244 16.6682C14.8137 14.9409 14.5823 13.2137 14.5533 11.4576C14.5533 10.5652 14.5823 9.67275 14.6112 8.75153C14.6401 8.20457 14.6401 7.6576 14.6112 7.11063C14.5244 6.2182 14.264 5.15305 13.4828 4.60608C12.7595 4.11669 11.8047 4.37578 11.1971 4.89396C10.4448 5.52729 10.0108 6.50608 9.63469 7.42729C9.43216 7.91669 9.25856 8.40608 9.08496 8.92426V9.5576C9.37429 8.63638 9.69256 7.74396 10.0976 6.88032C10.5316 5.93032 11.1681 4.8076 12.2965 4.57729C13.5117 4.3182 14.1193 5.49851 14.3508 6.47729C14.6401 7.74396 14.4376 9.09699 14.4087 10.3924C14.3797 11.2849 14.3797 12.2061 14.4376 13.1273C14.4955 13.9909 14.4955 14.8834 14.4376 15.747C14.3219 17.1576 13.9747 18.5106 13.4539 19.8061C12.9909 20.9576 12.2676 22.1379 11.0235 22.4834C10.7052 22.5697 10.3291 22.5697 10.0108 22.5121C9.69256 22.4546 9.37429 22.2818 9.08496 22.0803V22.2818C9.37429 22.4834 9.69256 22.6273 10.0398 22.6849C10.4159 22.7424 10.7631 22.7424 11.1103 22.6561Z" fill="white"/>
<path d="M16.1158 7.59997C16.1158 7.62876 16.1158 7.62876 16.1158 7.65755V7.68634L16.0869 7.71512H16.0579C16.0579 7.71512 16.029 7.71512 16.029 7.68634C15.9133 7.42725 15.8265 7.13937 15.7686 6.85149C15.7107 6.64997 15.6818 6.41967 15.7107 6.21815L15.6818 6.103C15.5082 5.52724 15.3346 4.95149 15.161 4.37573C15.1321 4.26058 15.1032 4.14543 15.0742 4.03027C15.19 4.83633 15.3636 5.6424 15.595 6.44846C15.9711 7.74391 16.463 8.98179 16.6655 10.306C16.6655 10.2485 16.6366 10.1621 16.6366 10.0757L16.4919 9.26967C16.2315 8.83785 16.2605 8.23331 16.1447 7.7727C16.1447 7.71512 16.1447 7.65755 16.1158 7.59997Z" fill="white"/>
<path d="M16.6658 10.3638C16.7237 10.6516 16.7526 10.9395 16.7815 11.2562C16.8105 12.638 16.6947 14.0486 16.4343 15.4016C16.2029 16.8123 15.8267 18.1941 15.3349 19.5183C14.843 20.8426 14.1486 22.0516 13.2517 23.1456C12.5284 24.0092 11.5446 24.7289 10.3584 24.6426C9.92438 24.6138 9.49039 24.4986 9.11426 24.2683V24.4986C9.34572 24.6138 9.60612 24.7289 9.83759 24.7865C10.3005 24.9016 10.7924 24.8729 11.2264 24.7577C11.6893 24.6426 12.1233 24.441 12.4705 24.1244C13.5121 23.3183 14.2354 22.1668 14.8141 21.0441C15.4217 19.7774 15.9135 18.482 16.2318 17.1001C16.4922 15.9486 16.6947 14.7971 16.8105 13.6168V11.2274C16.7815 11.0547 16.7237 10.882 16.6947 10.7092C16.6947 10.6229 16.6947 10.4789 16.6658 10.3638Z" fill="white"/>
<path d="M14.8135 2.79242C14.8714 2.99394 14.9003 3.19545 14.9582 3.39697C14.9292 3.13788 14.9582 2.90758 14.9292 2.64848C14.9292 2.6197 14.9582 2.6197 14.9582 2.64848C15.045 2.99394 15.1318 3.36818 15.2186 3.71364C15.0739 2.76364 14.7846 1.84242 14.3506 1.00758C14.1191 0.604545 13.8298 0.259091 13.4536 0H13.1064C14.1191 0.489394 14.5531 1.78485 14.8135 2.79242Z" fill="white"/>
<path d="M10.4446 1.6697C10.7339 1.09394 11.2258 0.345455 11.8623 0H11.4862C10.8207 0.489394 10.3867 1.32424 10.0685 2.04394C9.48981 3.39697 9.28728 4.92273 8.99795 6.39091C8.91115 6.85152 8.79542 7.31212 8.67969 7.77273H8.88222C9.05582 7.11061 9.17155 6.47727 9.28728 5.81515C9.57661 4.40455 9.80808 2.96515 10.4446 1.6697Z" fill="white"/>
<path d="M0.838523 0.460528C0.838523 0.43174 0.838523 0.402952 0.838523 0.374164C0.838523 0.374164 0.838523 0.374164 0.80959 0.374164C0.80959 0.374164 0.80959 0.374164 0.780657 0.374164C0.780657 0.374164 0.780657 0.374164 0.751724 0.374164C0.72279 0.374164 0.751724 0.374164 0.751724 0.345376C0.751724 0.345376 0.751724 0.345376 0.751724 0.316588C0.751724 0.2878 0.751724 0.374164 0.751724 0.402952C0.751724 0.43174 0.751724 0.43174 0.751724 0.43174C0.693857 1.03629 0.635991 1.58325 0.607058 2.13022C0.578125 2.73477 0.607058 3.31053 0.578125 3.91507C0.607058 3.62719 0.607058 3.3681 0.635991 3.08022C0.664924 2.21659 0.751724 1.35295 0.896389 0.489316C0.925322 0.402952 0.925322 0.316588 0.925322 0.230225C0.925322 0.316588 0.925322 0.402952 0.896389 0.460528V0.489316H0.867456C0.867456 0.518103 0.838523 0.518103 0.838523 0.460528C0.838523 0.489316 0.838523 0.489316 0.838523 0.460528Z" fill="white"/>
<path d="M0.723269 0.345455C0.723269 0.374242 0.723269 0.374242 0.723269 0.374242C0.723269 0.374242 0.723269 0.374242 0.752202 0.374242C0.752202 0.374242 0.752202 0.374242 0.781135 0.374242C0.781135 0.374242 0.781135 0.374242 0.810068 0.374242C0.810068 0.40303 0.810068 0.431818 0.810068 0.460606C0.867934 0.374242 0.867934 0.316667 0.896868 0.230303C0.925801 0.143939 0.925801 0.0863636 0.954734 0H0.694336C0.694336 0.115152 0.694336 0.230303 0.723269 0.345455Z" fill="white"/>
<path d="M9.17212 35.4091C9.17212 35.3227 9.20106 35.2363 9.22999 35.15C9.31679 33.7106 9.31679 32.2712 9.17212 30.8318C9.20106 31.1197 9.22999 31.4075 9.22999 31.7242C9.25892 32.5591 9.22999 33.4227 9.11426 34.2575V35.6106C9.11426 35.553 9.11426 35.5242 9.11426 35.4954C9.11426 35.4954 9.11426 35.4666 9.14319 35.4666C9.14319 35.4091 9.17212 35.4091 9.17212 35.4091Z" fill="white"/>
<path d="M9.31643 26.2259C9.34536 26.2834 9.34536 26.341 9.37429 26.3986C9.37429 26.4274 9.40322 26.4274 9.40322 26.4562C9.49002 26.6001 9.51896 26.7728 9.51896 26.9168C9.54789 27.0031 9.54789 27.0895 9.54789 27.1471V27.1759C9.54789 27.1759 9.54789 27.1759 9.51896 27.2047H9.49002H9.46109C9.46109 27.3198 9.43216 27.435 9.37429 27.5501C9.34536 27.7516 9.31643 27.9531 9.28749 28.1547C9.20069 28.8456 9.20069 29.5653 9.31643 30.285C9.37429 30.7744 9.40322 31.2637 9.43216 31.7531V31.4941C9.37429 30.6016 9.28749 29.7092 9.31643 28.8168C9.31643 28.4713 9.37429 28.0971 9.46109 27.7516C9.57682 27.5213 9.63469 27.2622 9.69256 27.0031C9.72149 26.7728 9.66362 26.5713 9.54789 26.3698C9.43216 26.1683 9.28749 26.0244 9.08496 25.938V26.1107C9.14283 26.1395 9.17176 26.1683 9.20069 26.1971C9.22963 26.1971 9.22963 26.1971 9.25856 26.1971C9.31643 26.1971 9.31643 26.1971 9.31643 26.2259Z" fill="white"/>
<path d="M10.7054 0H10.416C9.77951 0.54697 9.25872 1.26667 8.94045 2.04394C8.65112 2.90758 8.39072 3.8 8.15926 4.66364C7.89886 5.58485 7.63846 6.47727 7.34913 7.39848C7.3202 7.51364 7.26233 7.65758 7.2334 7.77273H7.46486C8.04352 6.01667 8.50645 4.23182 9.02725 2.44697C9.28765 1.43939 9.95311 0.690909 10.7054 0Z" fill="white"/>
<path d="M9.34544 0.374242L9.54797 0H9.34544C9.08504 0.374242 8.88251 0.748485 8.70891 1.1803C8.70891 1.20909 8.67998 1.1803 8.67998 1.1803L8.73784 1.00758C8.65104 1.20909 8.53531 1.38182 8.44851 1.58333C8.10131 2.33182 7.81198 3.0803 7.60945 3.88636C7.26225 5.18182 7.03079 6.47727 6.68359 7.77273H6.91506C7.26226 6.50606 7.49372 5.21061 7.84092 3.94394C8.15918 2.67727 8.67998 1.46818 9.34544 0.374242Z" fill="white"/>
<path d="M9.43252 34.9773C9.46145 33.8834 9.49039 32.8183 9.43252 31.7531C9.40359 31.2637 9.37466 30.7743 9.31679 30.2849C9.20106 29.594 9.20106 28.8743 9.28786 28.1834C9.31679 27.9819 9.34572 27.7804 9.37466 27.5789C9.34572 27.6364 9.31679 27.7228 9.25892 27.7804C9.25892 27.8092 9.20106 27.8092 9.20106 27.7516C9.25892 27.4637 9.25892 27.1758 9.25892 26.888V26.8592C9.22999 26.8304 9.22999 26.8016 9.20106 26.7728C9.17212 26.7152 9.14319 26.6289 9.11426 26.5713V26.7152C9.17212 26.8592 9.20106 27.0031 9.20106 27.147C9.20106 27.4349 9.17212 27.7228 9.11426 28.0107V30.4289C9.11426 30.544 9.14319 30.6304 9.14319 30.7455C9.14319 30.8031 9.14319 30.8319 9.14319 30.8607C9.25892 32.3001 9.28786 33.7395 9.20106 35.1789C9.20106 35.1789 9.20106 35.1789 9.20106 35.1501C9.20106 35.1501 9.20106 35.1501 9.22999 35.1501C9.22999 35.1501 9.22999 35.1501 9.25892 35.1501C9.28786 35.3228 9.31679 35.4667 9.28786 35.6395C9.28786 35.7546 9.28786 35.8986 9.25892 36.0137C9.22999 36.388 9.20106 36.7622 9.17212 37.1077C9.17212 37.2804 9.14319 37.4531 9.14319 37.6258H9.31679C9.31679 36.7334 9.40359 35.841 9.43252 34.9773Z" fill="white"/>
<path d="M9.54774 27.1756C9.54774 27.0893 9.54774 27.0029 9.5188 26.9453C9.5188 27.0317 9.48987 27.0893 9.46094 27.1756C9.46094 27.2044 9.46094 27.2044 9.46094 27.2332H9.48987H9.5188C9.5188 27.2044 9.5188 27.2044 9.54774 27.1756Z" fill="white"/>
<path d="M9.22949 26.1682C9.28736 26.2258 9.34522 26.3122 9.37416 26.3985C9.37416 26.3409 9.34522 26.2834 9.31629 26.2258C9.31629 26.197 9.28736 26.197 9.28736 26.197C9.28736 26.1682 9.25843 26.1682 9.22949 26.1682Z" fill="white"/>
<path d="M9.28786 26.8304C9.28786 26.6289 9.22999 26.4274 9.11426 26.2546V26.5425C9.14319 26.6001 9.17212 26.6865 9.22999 26.744C9.22999 26.7728 9.25892 26.8016 9.28786 26.8304Z" fill="white"/>
<path d="M9.28724 26.8303C9.28724 27.147 9.25831 27.4348 9.22938 27.7227C9.22938 27.7515 9.28724 27.7515 9.28724 27.7515C9.34511 27.6939 9.37404 27.6364 9.40297 27.55C9.43191 27.4348 9.46084 27.3197 9.48977 27.2045C9.48977 27.1757 9.48977 27.1757 9.48977 27.147C9.48977 27.147 9.48977 27.147 9.48977 27.1757C9.48977 27.1757 9.48977 27.1757 9.46084 27.1757C9.46084 27.1757 9.46084 27.1757 9.43191 27.1757C9.37404 26.9454 9.34511 26.7151 9.37404 26.4848C9.37404 26.4848 9.37404 26.4848 9.40297 26.4848C9.40297 26.4848 9.40297 26.4848 9.43191 26.4848C9.43191 26.4561 9.43191 26.4561 9.40297 26.4273C9.37404 26.3409 9.31618 26.2833 9.25831 26.197C9.22938 26.1682 9.17151 26.1394 9.14258 26.1106V26.2545C9.22938 26.4273 9.28724 26.6288 9.28724 26.8303Z" fill="white"/>
<path d="M9.4032 26.4562C9.37427 26.4274 9.37427 26.4274 9.4032 26.4562C9.37427 26.4274 9.37427 26.4274 9.34533 26.4562C9.3164 26.6865 9.34534 26.9168 9.4032 27.1471C9.4032 27.1471 9.4032 27.1471 9.43213 27.1471C9.43213 27.1471 9.43213 27.1471 9.46107 27.1471V27.1183C9.49 27.0607 9.49 26.9743 9.51893 26.888C9.51893 26.744 9.49 26.6001 9.4032 26.4562Z" fill="white"/>
<path d="M9.17151 35.4092C9.17151 35.4092 9.14258 35.4092 9.17151 35.4092C9.14258 35.438 9.14258 35.438 9.14258 35.438C9.14258 35.4668 9.14258 35.5243 9.14258 35.5531V35.841C9.14258 35.7546 9.17151 35.6683 9.17151 35.6107C9.17151 35.5531 9.17151 35.4955 9.17151 35.4092Z" fill="white"/>
<path d="M9.28786 35.9848C9.28786 36.0136 9.25892 36.0712 9.25892 36.1C9.25892 36.1 9.25892 36.1288 9.22999 36.1288H9.20106H9.17212L9.14319 36.1C9.14319 36.0424 9.11426 36.0136 9.11426 35.9561V37.5682H9.17212C9.17212 37.3954 9.17212 37.2227 9.20106 37.05C9.20106 36.7333 9.25892 36.3591 9.28786 35.9848Z" fill="white"/>
<path d="M9.14319 36.0999C9.14319 36.0999 9.14319 36.1287 9.17212 36.1287H9.20106H9.22999L9.25892 36.0999C9.25892 36.0711 9.28786 36.0135 9.28786 35.9847C9.31679 35.8696 9.28786 35.7256 9.31679 35.6105C9.34572 35.4378 9.34572 35.2938 9.28786 35.1211C9.28786 35.1211 9.28786 35.1211 9.25892 35.1211C9.25892 35.1211 9.25892 35.1211 9.22999 35.1211C9.22999 35.1211 9.22999 35.1211 9.22999 35.1499C9.20106 35.2362 9.20106 35.3226 9.17212 35.409C9.17212 35.4665 9.14319 35.5529 9.14319 35.6105C9.14319 35.6681 9.11426 35.7832 9.11426 35.8408V35.9559C9.14319 36.0423 9.14319 36.0711 9.14319 36.0999Z" fill="white"/>
<path d="M8.67969 1.15152C8.67969 1.1803 8.70862 1.1803 8.70862 1.15152C8.88222 0.748485 9.08475 0.345455 9.34515 0H9.22942C9.02688 0.316667 8.85329 0.633333 8.73755 0.978788L8.67969 1.15152Z" fill="white"/>
<path d="M16.3765 7.74381C16.3475 7.59987 16.3186 7.42714 16.2607 7.2832C16.2897 7.39835 16.3186 7.51351 16.3186 7.59987C16.3475 7.62866 16.3475 7.68623 16.3765 7.74381Z" fill="white"/>
<path d="M14.9006 2.64842C14.9296 2.87872 14.9006 3.13781 14.9296 3.3969V3.42569C14.9585 3.6272 15.0164 3.82872 15.0453 4.03024C15.0742 4.14539 15.1032 4.26054 15.1321 4.37569C15.3057 4.95145 15.4504 5.52721 15.6529 6.10296L15.6818 6.21811C15.6818 6.18933 15.6818 6.18933 15.6818 6.16054C15.7686 6.41963 15.7976 6.7363 15.8844 6.99539C15.9422 7.1969 16.0001 7.39842 16.029 7.59993C16.029 7.65751 16.058 7.71508 16.0869 7.77266C16.2026 8.26205 16.1448 8.8666 16.4052 9.26963C16.3762 9.12569 16.3473 8.95296 16.3184 8.80902C16.2026 8.08933 15.9712 7.39842 15.8265 6.70751C15.8265 6.70751 15.8265 6.70751 15.8265 6.67872C15.8265 6.67872 15.8265 6.67872 15.8554 6.67872C15.9712 6.76508 16.058 6.90902 16.1158 7.02418C16.029 6.7363 15.9133 6.44842 15.8265 6.13175C15.5661 5.32569 15.3346 4.49084 15.1032 3.68478C15.0164 3.33933 14.9296 2.96508 14.8428 2.61963C14.9296 2.61963 14.9006 2.61963 14.9006 2.64842Z" fill="white"/>
<path d="M15.7395 6.85155C15.7973 7.13943 15.8841 7.42731 15.9999 7.6864L16.0288 7.71519H16.0577C16.0577 7.71519 16.0867 7.71519 16.0867 7.6864V7.65761C16.0867 7.62883 16.0867 7.62883 16.0867 7.60004C16.0577 7.39852 15.9999 7.19701 15.942 6.99549C15.8552 6.70761 15.8263 6.41974 15.7395 6.16064C15.7395 6.18943 15.7395 6.18943 15.7395 6.21822C15.6816 6.44852 15.7105 6.65004 15.7395 6.85155Z" fill="white"/>
<path d="M16.3758 7.74388C16.3758 7.68631 16.3468 7.62873 16.3468 7.59994C16.3179 7.48479 16.289 7.39843 16.289 7.28328C16.26 7.19691 16.26 7.13934 16.2311 7.05297C16.1732 6.90903 16.1154 6.79388 15.9996 6.70752C15.9996 6.70752 15.9996 6.70752 15.9707 6.70752C15.9707 6.70752 15.9707 6.70752 15.9707 6.73631C16.1154 7.42722 16.3468 8.11813 16.4626 8.83782C16.4915 8.98176 16.5204 9.15449 16.5494 9.29843L16.6651 10.1045C16.6651 10.1909 16.694 10.2484 16.694 10.3348V10.3636C16.723 10.4787 16.723 10.6227 16.7519 10.7378C16.7808 10.9106 16.8387 11.0833 16.8676 11.256V10.2484C16.8098 9.78782 16.723 9.356 16.6651 8.8954C16.5783 8.49237 16.4626 8.11813 16.3758 7.74388Z" fill="white"/>
<path d="M12.21 7.85899C12.3257 7.97414 12.4704 8.03171 12.5861 8.14686C12.7597 8.2908 12.8754 8.49232 12.9622 8.69383C13.1358 9.12565 13.049 9.67262 13.0201 10.1332C13.049 10.6514 13.0201 11.1408 13.0201 11.659C13.0201 11.9757 12.9333 12.3499 13.1648 12.5802C13.1648 12.4363 13.1648 12.2923 13.1648 12.1196C13.1648 11.2847 13.2226 10.4211 13.2226 9.58626C13.2516 9.18323 13.1937 8.7802 13.0201 8.40596C12.9044 8.20444 12.7308 8.03171 12.5282 7.91656C12.4704 7.88777 12.3546 7.85899 12.21 7.85899C12.21 7.8302 12.21 7.85899 12.21 7.85899Z" fill="white"/>
<path d="M2.31437 5.7C2.28543 3.8 2.19864 1.9 2.31437 0H2.0829V0.0863636C1.96717 1.98636 2.05397 3.91515 2.0829 5.81515C2.0829 6.47727 2.0829 7.13939 2.05397 7.77273H2.28543C2.31437 7.08182 2.31437 6.39091 2.31437 5.7Z" fill="white"/>
<path d="M7.23359 0H7.05999C6.94426 0.806061 6.77066 1.58333 6.51026 2.33182C6.24987 3.22424 5.98947 4.08788 5.72907 4.95152C5.43974 5.87273 5.15041 6.82273 4.91895 7.77273H5.12148C5.58441 6.04545 6.13413 4.31818 6.626 2.59091C6.88639 1.75606 7.08893 0.892424 7.23359 0Z" fill="white"/>
<path d="M4.33967 0H4.10821C4.10821 0.316667 4.10821 0.633333 4.10821 0.978788C4.05034 3.25303 3.78994 5.49848 3.47168 7.77273H3.70314C3.90568 6.24697 4.07927 4.66364 4.22394 3.10909C4.31074 2.07273 4.33967 1.03636 4.33967 0Z" fill="white"/>
<path d="M16.5213 4.89394C16.2898 4.28939 16.1452 3.68485 16.0295 3.0803C15.9427 2.50455 15.7401 1.95758 15.5087 1.41061C15.2193 0.892424 14.8721 0.431818 14.4671 0H14.1777C14.5828 0.54697 15.0747 1.03636 15.3929 1.6697C15.7401 2.41818 15.798 3.22424 16.0005 4.00151C16.232 4.77879 16.5213 5.52727 16.8396 6.27576C17.071 6.76515 17.2446 7.28333 17.4182 7.80152H17.6497C17.5918 7.6 17.534 7.42727 17.4761 7.22576C17.1868 6.4197 16.8106 5.67121 16.5213 4.89394Z" fill="white"/>
<path d="M13.6857 24.5847C13.1939 24.9301 12.6731 25.2468 12.2101 25.621C11.5157 26.1392 10.9949 26.8301 10.7056 27.6362C10.532 28.2119 10.4452 28.7877 10.3873 29.3634C10.3295 30.0544 10.2716 30.7453 10.2427 31.4362C10.2137 32.1271 10.1848 32.7604 10.1848 33.4225C10.1269 33.9983 10.1848 34.6028 10.3005 35.1786C10.5031 36.0134 10.8792 36.7907 11.1107 37.6256H11.3421C11.0528 36.5316 10.5031 35.5241 10.3873 34.4013C10.3584 34.0271 10.3873 33.6241 10.4163 33.2498C10.4452 32.7892 10.4452 32.3574 10.4741 31.8968C10.5031 31.0331 10.5609 30.1695 10.6477 29.3059C10.6767 28.5574 10.8792 27.8377 11.1685 27.1468C11.4579 26.6574 11.834 26.2256 12.268 25.8801C12.7309 25.5059 13.2807 25.1604 13.8014 24.7862C14.3801 24.3544 14.9009 23.865 15.3349 23.2892C15.9714 22.4831 16.4633 21.5907 16.8684 20.6407V20.0938C16.4633 21.1013 15.9425 22.0513 15.3349 22.9437C14.843 23.5771 14.2933 24.1241 13.6857 24.5847Z" fill="white"/>
<path d="M17.2443 3.42576C17.0707 2.82121 16.8971 2.24545 16.6367 1.6697C16.4052 1.12273 16.1159 0.604545 15.8844 0.0863636C15.8555 0.0575758 15.8555 0.0287879 15.8266 0H15.624C16.087 0.95 16.6077 1.9 16.8971 2.93636C17.36 4.54848 17.8519 6.16061 18.3148 7.77273H18.5173C18.3727 7.25455 18.1991 6.73636 18.0544 6.21818C17.794 5.29697 17.5047 4.34697 17.2443 3.42576Z" fill="white"/>
<path d="M15.5079 24.0955C14.9003 24.6713 14.2927 25.247 13.743 25.8803C13.309 26.341 12.9039 26.8016 12.4699 27.2622C12.0938 27.6364 11.7755 28.0682 11.5441 28.5288C11.139 29.4788 11.1679 30.544 11.2258 31.5516C11.2547 32.041 11.2837 32.5591 11.3126 33.0485C11.3415 33.6243 11.3126 34.2 11.3126 34.7758C11.2547 35.7258 11.3705 36.6758 11.6019 37.597H11.7755C11.3994 36.3016 11.5151 34.8334 11.5151 33.5091C11.5151 32.1849 11.2547 30.8319 11.4573 29.4788C11.573 28.7879 11.8913 28.1546 12.3831 27.6652C12.9618 27.0607 13.5115 26.4561 14.0612 25.8516C14.9871 24.844 16.0866 24.0091 16.8388 22.8576V22.4546C16.4916 23.0591 16.0287 23.6349 15.5079 24.0955Z" fill="white"/>
<path d="M18.0259 4.0303C17.7076 3.28182 17.3604 2.53333 17.0422 1.75606C16.8107 1.1803 16.6082 0.575758 16.4057 0H16.2031C16.4346 0.806061 16.7239 1.61212 17.0711 2.41818C17.3894 3.19545 17.7944 3.97273 18.0838 4.77879C18.3731 5.58485 18.5756 6.44848 18.7782 7.31212C18.8071 7.48485 18.865 7.62879 18.8939 7.80152H19.0964C18.9807 7.3697 18.8939 6.96667 18.7782 6.53485C18.5756 5.67121 18.3442 4.83636 18.0259 4.0303Z" fill="white"/>
<path d="M13.6567 28.644C13.4252 29.6228 13.2805 30.6304 13.2516 31.638C13.1648 32.7607 12.9333 33.8546 12.8176 34.9774C12.7308 35.841 12.6729 36.7334 12.7019 37.5971H12.8755C12.8755 36.1865 12.9912 34.8046 13.2227 33.4228C13.3384 32.7031 13.4252 32.0122 13.4831 31.2925C13.5409 30.544 13.6277 29.7956 13.7724 29.0471C13.9171 28.3274 14.2064 27.6365 14.6404 27.0319C15.1033 26.4274 15.5952 25.8516 16.087 25.2759C16.3474 24.9592 16.6078 24.6137 16.8393 24.2971V23.894C16.3185 24.6713 15.7109 25.4198 15.1033 26.1395C14.4378 26.8304 13.946 27.694 13.6567 28.644Z" fill="white"/>
<path d="M15.711 28.0105C15.5374 28.7878 15.5084 29.5651 15.5952 30.3423C15.6531 31.1484 15.7978 31.9544 15.8846 32.7605C15.9135 33.3651 15.8846 33.9696 15.8267 34.5741C15.7688 35.2075 15.7399 35.8696 15.7688 36.5029C15.7688 36.8772 15.8556 37.2226 15.9714 37.5681H16.1739C16.0292 37.165 15.9424 36.7044 15.9714 36.2726C15.9714 35.6393 16.0003 34.9772 16.0582 34.3438C16.116 33.7105 16.116 33.0772 16.0582 32.4726C15.9714 31.6666 15.8267 30.8605 15.7688 30.0544C15.682 29.2196 15.7688 28.3847 16.0292 27.6075C16.2318 27.0605 16.5211 26.5135 16.8394 26.0241V25.6499C16.8104 25.7075 16.7526 25.7938 16.7236 25.8514C16.2896 26.5135 15.9424 27.262 15.711 28.0105Z" fill="white"/>
<path d="M17.9098 0.259091C17.8809 0.172727 17.8809 0.0863636 17.8519 0H17.6494C17.6783 0.143939 17.7073 0.287879 17.7362 0.40303C18.1702 2.21667 18.691 4.0303 19.1829 5.84394C19.3565 6.47727 19.5301 7.11061 19.7326 7.77273H19.9641C19.7615 7.08182 19.5879 6.39091 19.3854 5.7C18.8646 3.88636 18.3727 2.07273 17.9098 0.259091Z" fill="white"/>
<path d="M19.8773 0H19.6748C19.7037 0.143939 19.7327 0.287879 19.7327 0.431818C20.1377 2.87879 20.5717 5.32576 20.9189 7.77273H21.1215C20.9189 6.16061 20.6585 4.57727 20.3981 2.99394C20.2245 2.01515 20.022 1.00758 19.8773 0Z" fill="white"/>
<path d="M27.0526 36.9349C27.0526 36.9349 27.0526 36.9061 27.0526 36.9349L27.1394 36.9924C27.1394 36.9636 27.1394 36.9061 27.1684 36.8773C27.1973 36.8485 27.1973 36.8485 27.1973 36.8773C27.1973 36.9061 27.2262 36.9924 27.2262 37.05C27.2262 37.0212 27.2262 36.9636 27.2262 36.9349C27.1973 36.3879 27.1394 35.8409 27.0816 35.3227C27.0237 34.8621 27.0237 34.4015 26.9658 33.9409C26.9948 35.1788 27.0526 36.4455 27.0526 37.7121H27.0816C27.0816 37.5394 27.0816 37.3955 27.1105 37.2227C27.1105 37.1076 27.0816 37.0212 27.0526 36.9349Z" fill="white"/>
<path d="M26.9653 33.6817C27.0232 34.0847 27.11 34.4878 27.1968 34.862C27.1389 33.1347 27.0811 31.4074 27.0232 29.6802H26.8496C26.8785 30.7741 26.8785 31.8681 26.9364 32.9908C26.9653 33.2211 26.9653 33.4514 26.9653 33.6817Z" fill="white"/>
<path d="M27.9785 34.8332C27.9207 33.912 27.8917 32.9908 27.9496 32.0408C27.9785 31.2059 28.1232 30.4862 28.21 29.6514L28.0364 29.6802C27.8628 30.8605 27.776 31.9544 27.7471 33.1635C27.7471 34.3438 27.8339 35.5529 27.9785 36.7332C28.0075 37.0499 28.0653 37.3665 28.0943 37.6832L28.2389 37.6544V37.6256C28.1521 36.7044 28.0653 35.7832 27.9785 34.8332Z" fill="white"/>
<path d="M28.2962 1.95764C28.383 1.35309 28.4119 0.719759 28.383 0.0864258H28.2672C28.2962 0.259153 28.2962 0.43188 28.2962 0.604608C28.2962 0.950062 28.2672 1.29552 28.2094 1.64097C28.1515 2.07279 28.1226 2.50461 28.0936 2.93643C28.0358 3.74249 28.0068 4.57734 28.0358 5.3834C28.0647 6.18946 28.0936 6.96673 28.1226 7.77279L28.2962 7.80158L28.2383 7.02431C28.1515 5.32582 28.1804 3.62734 28.2962 1.95764Z" fill="white"/>
<path d="M37.0348 33.9122C36.8034 34.1712 36.6298 34.4879 36.543 34.8334L36.7455 34.7182C36.8323 34.4879 36.948 34.2576 37.0927 34.0273C37.3242 33.7682 37.5267 33.9122 37.6424 34.1137L37.7582 34.0561C37.5846 33.7682 37.3531 33.5667 37.0348 33.9122Z" fill="white"/>
<path d="M38.3656 33.1061C38.3945 32.6167 38.4234 31.9546 37.9026 31.7243C37.1504 31.35 36.6585 32.7894 36.4849 33.25C36.2245 33.8834 36.022 34.5455 35.9062 35.2076L35.9641 35.1788C36.022 34.8909 36.1088 34.6031 36.1666 34.3727C36.1088 34.6031 36.0798 34.8621 36.0509 35.1212L36.0798 35.0924C36.1377 34.747 36.2245 34.4015 36.3402 34.0561C36.4849 33.6243 36.6296 33.1924 36.8321 32.7606C36.9768 32.444 37.2082 31.9258 37.5844 31.8394C37.8448 31.7818 38.0762 32.0697 38.1341 32.3C38.192 32.5879 38.2209 32.9046 38.163 33.1924C38.163 33.394 38.1341 33.5955 38.1341 33.8258L38.3077 33.7106C38.3366 33.4803 38.3366 33.2788 38.3656 33.1061Z" fill="white"/>
<path d="M38.0176 29.047C37.5257 29.1334 37.1207 29.594 36.8603 29.9394C36.4841 30.4288 36.1948 31.0046 35.9923 31.5803C35.674 32.5591 35.4136 33.5667 35.24 34.6031C35.1821 34.9197 35.0953 35.2364 35.0664 35.5531C35.0953 35.4379 35.0953 35.3228 35.1243 35.2364C35.2111 34.9773 35.2979 34.747 35.3847 34.5167C35.3847 34.4879 35.4136 34.5167 35.4136 34.5167C35.2979 34.8622 35.24 35.2364 35.1821 35.5818L35.24 35.5531C35.2689 35.3228 35.3268 35.0925 35.3557 34.8622C35.5004 34.0849 35.6451 33.2788 35.8765 32.5015C36.0501 31.7531 36.3395 31.0334 36.7445 30.4C37.0339 29.9394 37.4678 29.3925 38.0176 29.2197C38.7409 28.9894 39.0881 29.9106 39.146 30.4576C39.1749 31.0909 39.146 31.7531 39.0302 32.3864C39.0013 32.6743 38.9724 32.9334 38.9724 33.2212L39.146 33.0773C39.1749 32.5015 39.2906 31.9546 39.3196 31.4076C39.3774 30.5728 39.2906 28.8167 38.0176 29.047Z" fill="white"/>
<path d="M36.1664 34.3727C36.1085 34.603 36.0217 34.8908 35.9639 35.1787L36.0796 35.1212C36.1085 34.8621 36.1664 34.6318 36.1953 34.3727C36.1953 34.3727 36.1953 34.3727 36.1664 34.3727C36.1953 34.3727 36.1953 34.3439 36.1664 34.3727C36.1953 34.3439 36.1664 34.3439 36.1664 34.3727Z" fill="white"/>
<path d="M35.3853 34.5167C35.2695 34.747 35.1828 35.0061 35.1249 35.2364C35.096 35.3515 35.067 35.4379 35.067 35.5531L35.0381 35.6394L35.1827 35.5818C35.2406 35.2076 35.3274 34.8622 35.3853 34.5167C35.4142 34.5167 35.3853 34.4879 35.3853 34.5167Z" fill="white"/>
<path d="M40.043 32.2712L40.0719 32.2424C40.0719 32.1273 40.043 32.0409 40.043 31.9258C40.043 32.0409 40.043 32.1561 40.043 32.2712Z" fill="white"/>
<path d="M39.8695 31.4365C39.8695 30.9183 39.8984 30.4289 39.9273 29.9107C39.9563 29.4789 40.0141 28.9032 39.8695 28.5001C39.7827 28.2986 39.667 28.0971 39.4934 27.9532C39.3776 27.838 39.233 27.7804 39.1172 27.6653V27.6365C39.233 27.6365 39.3487 27.6653 39.4644 27.7229C39.3198 27.5789 39.1462 27.4926 38.9436 27.435C38.0467 27.1759 37.2076 28.2698 36.8026 28.9032C36.5132 29.3638 36.2528 29.8532 36.0503 30.3713C35.7031 31.1774 35.3559 31.9835 35.0955 32.8183C34.7773 33.8259 34.5747 34.8623 34.459 35.9274L34.6615 35.841C34.8351 34.5168 35.1534 33.1926 35.6452 31.9259C36.1082 30.688 36.6 29.3925 37.468 28.385C37.7863 28.0107 38.2203 27.6077 38.7411 27.5789C39.4644 27.5213 39.8405 28.385 39.8984 28.9607C39.9273 29.3062 39.9273 29.6229 39.8984 29.9683C39.8695 30.4289 39.8695 30.8607 39.8984 31.3213C39.8984 31.6668 39.9563 32.041 39.9852 32.3865L40.0431 32.3289C39.8116 32.0698 39.8695 31.7244 39.8695 31.4365Z" fill="white"/>
<path d="M41.4895 26.9453C41.4027 26.0529 41.1713 24.9878 40.3611 24.4408C39.6378 23.9514 38.683 24.2105 38.0754 24.7287C37.3232 25.362 36.8892 26.3408 36.513 27.262C36.0501 28.4135 35.7029 29.5938 35.2979 30.7453C35.0085 31.4938 34.7771 32.2711 34.5745 33.0772C34.5456 33.1635 34.5456 33.2211 34.5167 33.3075L34.4877 33.3938C34.372 33.8544 34.2852 34.315 34.1695 34.7756L34.0827 35.1211L34.0248 35.2938V35.3226V35.3514C33.9669 35.6393 33.8801 35.9272 33.8223 36.215L34.0248 36.1287C34.0537 36.0135 34.0827 35.8984 34.1116 35.7832C34.1695 35.5529 34.2273 35.3226 34.2852 35.0635C34.5167 34.3726 34.6035 33.6529 34.7771 32.9332C35.0085 32.0696 35.2689 31.2347 35.5872 30.3999C36.0212 29.162 36.3684 27.8953 36.9181 26.715C37.3521 25.765 37.9886 24.6423 39.117 24.412C40.3322 24.1529 40.9398 25.3332 41.1713 26.312C41.4606 27.5787 41.2581 28.9317 41.2291 30.1984C41.2291 30.4863 41.2291 30.7741 41.2291 31.062L41.4027 30.8605C41.4027 30.112 41.4317 29.3347 41.4606 28.5863C41.5474 28.0105 41.5474 27.4635 41.4895 26.9453Z" fill="white"/>
<path d="M42.9944 27.3773C42.9944 27.4061 42.9944 27.4349 42.9944 27.4349V27.4637L42.9654 27.4925H42.9365C42.9365 27.4925 42.9076 27.4925 42.9076 27.4637C42.7918 27.2046 42.705 26.9167 42.6472 26.6289C42.5893 26.4273 42.5604 26.197 42.5893 25.9955L42.5314 25.9092C42.3578 25.3334 42.1842 24.7576 42.0106 24.1819C41.9817 24.0667 41.9528 23.9516 41.9238 23.8364C42.0396 24.6425 42.2132 25.4773 42.4446 26.2546C42.6761 27.0319 42.9365 27.7804 43.1679 28.5289V28.5001C43.1101 28.1834 43.1101 27.8379 43.0233 27.5501C43.0233 27.5213 42.9944 27.4637 42.9944 27.3773Z" fill="white"/>
<path d="M34.6047 30.285C34.9519 29.5365 35.2701 28.7592 35.5305 27.982C35.762 27.1759 35.9356 26.3411 36.1092 25.5062C36.1092 25.4486 36.1381 25.3623 36.1381 25.3047C36.0513 25.4486 35.9645 25.5638 35.8777 25.6789L35.8199 26.0244C35.6752 26.8592 35.4437 27.6941 35.1833 28.5001C34.894 29.335 34.4889 30.1123 34.1417 30.9183C33.4473 32.4441 32.9265 34.0562 32.6372 35.7259C32.5794 36.0426 32.5504 36.388 32.5215 36.7047L32.724 36.6471C32.7819 36.1577 32.8397 35.6683 32.9555 35.1789C33.3027 33.4804 33.8524 31.8395 34.6047 30.285Z" fill="white"/>
<path d="M39.6094 19.6909C40.8824 20.0076 41.3743 21.4758 41.6636 22.5697C41.7215 22.7712 41.7504 22.9728 41.8083 23.1743C41.7794 22.9152 41.8083 22.6849 41.7794 22.4258C41.7794 22.397 41.8083 22.397 41.8083 22.4258C41.8951 22.7712 41.9819 23.1455 42.0687 23.4909C41.924 22.5409 41.6347 21.6485 41.2007 20.7849C40.7088 19.95 39.754 19.1728 38.7125 19.547C38.5099 19.6334 38.3363 19.7197 38.1627 19.8637C38.1627 19.95 38.1338 20.0652 38.1338 20.1515C38.3074 19.95 38.5389 19.8061 38.7993 19.7197C39.0596 19.6334 39.349 19.6334 39.6094 19.6909Z" fill="white"/>
<path d="M26.966 33.6816C26.966 33.6816 26.9371 33.6816 26.966 33.6816V33.9407C27.0239 34.4013 27.0239 34.8619 27.0817 35.3225C27.1396 35.8695 27.1975 36.4165 27.2264 36.9347V36.9635C27.2264 37.021 27.2264 37.0786 27.2264 37.1362C27.2264 37.1938 27.2553 37.3089 27.2553 37.3665C27.2553 37.4529 27.2843 37.568 27.2843 37.6544V37.6832H27.4868C27.4868 37.4529 27.4579 37.1938 27.4289 36.9635C27.3711 36.4165 27.3421 35.8695 27.2553 35.3225C27.2264 35.1786 27.2264 35.0347 27.1975 34.8907C27.1396 34.4877 27.0528 34.0847 26.966 33.6816Z" fill="white"/>
<path d="M27.2258 36.8485C27.2258 36.8197 27.1969 36.8197 27.1969 36.8485C27.1969 36.8773 27.1969 36.9349 27.168 36.9636C27.2548 37.0788 27.2837 37.2227 27.2837 37.3667C27.2837 37.2803 27.2837 37.2227 27.2548 37.1364C27.2548 37.1076 27.2548 37.0788 27.2548 37.05C27.2548 37.0212 27.2258 36.9061 27.2258 36.8485Z" fill="white"/>
<path d="M27.1104 37.6832H27.1682C27.1682 37.5105 27.1682 37.3666 27.1393 37.1938C27.1104 37.3666 27.1104 37.5105 27.1104 37.6832Z" fill="white"/>
<path d="M27.2836 37.3669C27.2836 37.2229 27.2257 37.1078 27.1679 36.9638L27.11 36.9062H27.0811C27.11 36.9926 27.1389 37.1078 27.1389 37.1941C27.1679 37.3669 27.1679 37.5108 27.1679 37.6835C27.1679 37.5972 27.1679 37.5108 27.1679 37.4244C27.1679 37.3956 27.1968 37.3956 27.2257 37.4244C27.2257 37.5108 27.2257 37.5972 27.2257 37.6835H27.2836V37.6547C27.2836 37.5684 27.2836 37.482 27.2836 37.3669Z" fill="white"/>
<path d="M27.168 37.4242C27.168 37.5105 27.168 37.5969 27.168 37.6833H27.2258C27.2258 37.5969 27.2258 37.5105 27.2258 37.4242C27.2258 37.3954 27.168 37.3954 27.168 37.4242Z" fill="white"/>
<path d="M31.74 35.5242C31.7111 35.6393 31.6821 35.7545 31.6821 35.8696C31.6532 36.0711 31.6243 36.2727 31.6243 36.4454C31.5953 36.6181 31.5953 36.8196 31.5664 36.9924L31.7111 36.9636C31.74 36.4742 31.74 36.0136 31.74 35.5242Z" fill="white"/>
<path d="M38.25 18.8561C38.2789 18.8274 38.3079 18.7986 38.3368 18.7698L38.25 18.8561Z" fill="white"/>
<path d="M31.5947 35.2364C31.6237 35.0925 31.6526 34.9198 31.6815 34.7758C31.6815 34.747 31.6815 34.7182 31.6815 34.6895C31.6526 34.8046 31.6237 34.891 31.6237 35.0061C31.6237 35.0925 31.6237 35.1501 31.5947 35.2364Z" fill="white"/>
<path d="M31.9131 33.797C31.971 33.6242 32.0867 33.4515 32.1735 33.2788C32.1735 33.25 32.2313 33.2788 32.2024 33.3076C32.0867 33.5954 32.0288 33.9121 31.971 34.2288C31.942 34.3151 31.942 34.3727 31.942 34.4591C32.0867 33.797 32.2892 33.1348 32.4917 32.5015C33.0415 30.8318 33.7069 29.1909 34.2567 27.4924C34.2567 27.4924 34.2567 27.4636 34.2856 27.4636C34.1988 27.55 34.0831 27.6076 33.9963 27.6939C33.4755 29.2197 32.8968 30.7167 32.4049 32.2424C32.1735 32.7606 32.0288 33.2788 31.9131 33.797Z" fill="white"/>
<path d="M39.5513 17.5032C39.7828 16.8698 39.6092 16.1213 39.3777 15.5168C39.1173 14.7683 38.7412 14.0774 38.6833 13.2713C38.5965 12.4077 38.4808 11.5153 38.4518 10.6516C38.4229 9.78801 38.5676 9.01074 38.4229 8.17589C38.365 7.77286 38.2493 7.39861 38.1336 7.02437C38.0178 6.65013 37.9311 6.16074 37.8443 5.75771C37.6417 4.98043 37.3813 4.20316 37.0341 3.45468C36.8605 3.08043 36.6869 2.73498 36.5423 2.36074C36.4555 2.30316 36.3687 2.27437 36.2529 2.2168L36.3687 2.4471C36.7159 3.22437 37.092 4.03043 37.3524 4.83649C37.6417 5.64255 37.7575 6.4774 37.9889 7.28346C38.1046 7.68649 38.1914 8.08952 38.2493 8.52134C38.2782 8.95316 38.2782 9.41377 38.2204 9.84558C38.2204 10.7092 38.2782 11.6016 38.394 12.4653C38.4229 12.8395 38.4518 13.2426 38.5097 13.6168C38.5965 14.0198 38.7122 14.3941 38.8569 14.7395C38.9437 14.941 39.0305 15.1426 39.0884 15.3441C39.0305 15.1138 38.9726 14.8835 38.9437 14.6532C38.9437 14.6244 38.9726 14.6244 38.9726 14.6532C39.0305 15.1426 39.3777 15.5744 39.4645 16.0638C39.5224 16.438 39.5224 16.841 39.4066 17.2153V17.2441C39.3777 17.388 39.3198 17.5319 39.262 17.6759C39.1462 17.935 39.0305 18.2229 38.8569 18.4532C38.6833 18.7122 38.4518 18.9426 38.1914 19.1153C38.1914 19.1441 38.1914 19.1441 38.1914 19.1729L38.4229 18.9713C38.9437 18.5683 39.3198 18.0789 39.5513 17.5032Z" fill="white"/>
<path d="M31.6814 35.8696C31.6235 36.1575 31.5657 36.4166 31.5367 36.7045C31.5367 36.7908 31.5367 36.906 31.5078 36.9924H31.5367C31.5657 36.8196 31.5946 36.6181 31.5946 36.4454C31.6235 36.2727 31.6525 36.0711 31.6814 35.8696Z" fill="white"/>
<path d="M36.8027 8.23327C36.7448 7.28327 36.2819 6.53478 35.8768 5.69993C35.4139 4.77872 35.0667 3.79993 34.8642 2.76357C34.8352 2.59084 34.7774 2.41812 34.7484 2.24539C34.7484 2.30297 34.6616 2.33175 34.6327 2.27418C34.517 1.95751 34.4302 1.64084 34.4302 1.32418L34.3145 1.2666C34.3434 1.38175 34.3723 1.4969 34.4013 1.61206C34.517 2.13024 34.6038 2.64842 34.7195 3.1666C34.951 4.1166 35.2982 5.03781 35.7322 5.90145C35.9926 6.33327 36.1951 6.79387 36.3976 7.28327C36.5423 7.77266 36.6002 8.26206 36.5712 8.78024C36.5712 9.24084 36.5423 9.73024 36.5423 10.1908C36.5712 10.709 36.658 11.256 36.7448 11.7742C36.8606 12.3211 36.9763 12.8681 37.092 13.3863C37.1788 13.5302 37.2367 13.6742 37.3235 13.8181C37.3814 13.9333 37.4392 14.0484 37.4682 14.1348C37.2946 13.1848 37.0342 12.2348 36.8895 11.3136C36.7448 10.2772 36.8606 9.26963 36.8027 8.23327Z" fill="white"/>
<path d="M32.347 30.9471C32.7231 29.9683 33.1571 29.0183 33.4754 28.0107C33.3886 28.0683 33.2728 28.1259 33.186 28.1835C33.1282 28.3562 33.0414 28.5577 32.9835 28.7304C32.5784 29.738 32.1734 30.7168 31.8262 31.7244C31.479 32.732 31.0739 33.682 30.7556 34.6607C30.4953 35.5244 30.3506 36.4168 30.3506 37.3092L30.582 37.2516C30.6399 36.1289 30.8424 35.035 31.2475 33.9698C31.5947 32.9623 31.9708 31.9547 32.347 30.9471Z" fill="white"/>
<path d="M38.8865 18.3953C39.0601 18.165 39.1759 17.8771 39.2916 17.618C39.3495 17.4741 39.3784 17.3302 39.4363 17.1862V17.1574C39.5231 16.7832 39.552 16.3802 39.4941 16.0059C39.4073 15.5165 39.0891 15.0847 39.0023 14.5953C39.0023 14.5665 38.9444 14.5665 38.9733 14.5953C39.0023 14.8256 39.0601 15.0559 39.118 15.315C39.1469 15.459 39.2048 15.5741 39.2337 15.718C39.3784 16.1499 39.3784 16.6105 39.2916 17.0423C39.2048 17.4741 39.0312 17.8771 38.7997 18.2514C38.684 18.4529 38.5104 18.6256 38.3657 18.7984C38.3368 18.8271 38.3079 18.8559 38.25 18.9135V19.115C38.4815 18.8847 38.7129 18.6544 38.8865 18.3953Z" fill="white"/>
<path d="M31.6818 35.8697C31.7107 35.7546 31.7397 35.6394 31.7397 35.5243C31.7686 35.3516 31.7975 35.1788 31.8265 35.0061C31.8554 34.8334 31.8843 34.6606 31.9133 34.4879C31.9133 34.4016 31.9422 34.3152 31.9422 34.2576C31.9711 33.941 32.0579 33.6243 32.1737 33.3364C32.1737 33.3076 32.1447 33.3076 32.1447 33.3076C32.0579 33.4803 31.9711 33.6243 31.8843 33.8258C31.8843 33.8546 31.8554 33.9122 31.8554 33.941C31.7686 34.2 31.7397 34.4591 31.6818 34.7182C31.6818 34.747 31.6818 34.7758 31.6818 34.8046C31.6529 34.9773 31.6239 35.1213 31.595 35.2652C31.5082 35.6682 31.4214 36.0425 31.3635 36.4455C31.3346 36.6758 31.3057 36.9061 31.3057 37.1076L31.5082 37.05C31.5082 36.9349 31.5082 36.8485 31.5371 36.7622C31.5661 36.4167 31.6239 36.1576 31.6818 35.8697Z" fill="white"/>
<path d="M43.2261 27.5212C43.1971 27.3772 43.1682 27.2045 43.1104 27.0605C43.1393 27.1757 43.1682 27.2621 43.1682 27.3772C43.1971 27.4348 43.2261 27.4636 43.2261 27.5212Z" fill="white"/>
<path d="M42.7916 26.5138C42.7916 26.485 42.7916 26.485 42.7916 26.5138C42.8205 26.485 42.8205 26.485 42.7916 26.5138C42.9363 26.6001 42.9941 26.7153 43.052 26.8592C42.9652 26.5714 42.8495 26.2835 42.7627 25.9668C42.5023 25.1608 42.2708 24.3259 42.0393 23.5198C41.9525 23.1744 41.8657 22.8001 41.7789 22.4547C41.7789 22.4259 41.75 22.4547 41.75 22.4547C41.7789 22.7138 41.75 22.9441 41.7789 23.2032V23.232C41.8079 23.4335 41.8368 23.635 41.8947 23.8365C41.9236 23.9517 41.9525 24.0668 41.9815 24.182C42.1551 24.7577 42.2997 25.3335 42.5023 25.9092L42.5312 26.0244C42.5312 25.9956 42.5312 25.9956 42.5312 25.9668C42.5312 25.9668 42.5312 25.9668 42.5312 25.938C42.5312 25.9092 42.5312 25.938 42.5601 25.938C42.5601 25.938 42.5601 25.938 42.5891 25.938C42.618 25.938 42.5891 25.938 42.5891 25.9668C42.6759 26.2259 42.7048 26.5138 42.7916 26.8017C42.8495 27.0032 42.9073 27.2047 42.9363 27.4062C42.9652 27.4638 42.9652 27.5214 42.9941 27.6077C43.052 27.8956 43.0809 28.2411 43.1099 28.5577L43.1967 28.4138C43.1388 27.7517 42.9363 27.1183 42.7916 26.5138Z" fill="white"/>
<path d="M42.618 26.6575C42.6759 26.9454 42.7627 27.2333 42.8784 27.4924L42.9074 27.5212H42.9363C42.9363 27.5212 42.9652 27.5212 42.9652 27.4924V27.4636C42.9652 27.4348 42.9652 27.406 42.9652 27.406C42.9363 27.2045 42.8784 27.003 42.8206 26.8015C42.7338 26.5136 42.7048 26.2257 42.618 25.9666C42.618 25.9666 42.618 25.9666 42.618 25.9378C42.618 25.9091 42.618 25.9378 42.5891 25.9378C42.5602 25.9378 42.5891 25.9378 42.5602 25.9378C42.5313 25.9378 42.5602 25.9378 42.5602 25.9666C42.5602 25.9954 42.5602 25.9954 42.5312 26.0242C42.5312 26.2257 42.5602 26.456 42.618 26.6575Z" fill="white"/>
<path d="M43.1968 27.3773C43.1679 27.2909 43.1389 27.1758 43.1389 27.0606C43.11 26.9743 43.11 26.9167 43.0811 26.8303C43.0232 26.6864 42.9653 26.5712 42.8496 26.4849C42.9653 27.1182 43.1679 27.7227 43.3125 28.3561L43.4572 28.097C43.3993 27.8955 43.3415 27.694 43.3125 27.4924C43.2257 27.4637 43.1968 27.4349 43.1968 27.3773Z" fill="white"/>
<path d="M40.1306 29.3923C40.1596 28.9893 40.1017 28.5862 39.9281 28.212C39.8124 28.0105 39.6388 27.8377 39.4362 27.7226C39.3205 27.665 39.2048 27.6362 39.089 27.6362C39.089 27.6362 39.0601 27.665 39.089 27.665C39.2048 27.7802 39.3494 27.8377 39.4652 27.9529C39.6388 28.0968 39.7545 28.2984 39.8413 28.4999C40.0149 28.9317 39.9281 29.4787 39.8992 29.9105C39.8702 30.4287 39.8702 30.918 39.8413 31.4362C39.8413 31.7241 39.7834 32.0696 39.957 32.3287L40.0438 32.2711C40.0438 32.1559 40.0438 32.0408 40.0438 31.9256C40.0728 31.062 40.1306 30.2271 40.1306 29.3923Z" fill="white"/>
<path d="M29.5692 1.38184C29.5692 1.72729 29.4824 2.10153 29.4824 2.44699V2.47578C29.5114 2.67729 29.5403 2.90759 29.5403 3.10911C29.5403 3.3682 29.5692 3.62729 29.5692 3.88638C29.5692 4.14547 29.5403 4.40456 29.5114 4.66365C29.5403 4.89396 29.5403 5.09547 29.5114 5.32578C29.5114 5.32578 29.5114 5.32578 29.5114 5.35456C29.5114 5.35456 29.5114 5.35456 29.4824 5.35456C29.4824 5.38335 29.4824 5.41214 29.4824 5.41214L29.5114 6.76517C29.5114 7.1682 29.5403 7.57123 29.5403 7.94547L29.6271 7.97426C29.6271 6.24699 29.6271 4.51971 29.6271 2.76365C29.6271 2.33184 29.5982 1.87123 29.5692 1.38184Z" fill="white"/>
<path d="M29.3094 33.8833C29.3962 32.7894 29.2226 31.6954 29.1358 30.6015C29.1069 30.1985 29.0779 29.8818 29.0779 29.5076L28.8754 29.5364C28.9043 30.4864 29.0201 31.35 29.1069 32.3288C29.1647 33.4515 29.1069 34.5742 28.9043 35.6682C28.7886 36.3303 28.7018 36.9636 28.6729 37.6257L28.8465 37.597C28.8465 37.4242 28.8754 37.2515 28.9043 37.1076C28.9911 36.0136 29.2226 34.9485 29.3094 33.8833Z" fill="white"/>
<path d="M29.4243 1.64101C29.4243 1.61222 29.4243 1.55465 29.4243 1.52586C29.4243 1.23798 29.3954 0.950104 29.3954 0.633437C29.3954 0.604649 29.4533 0.575861 29.4533 0.604649C29.4822 0.691013 29.5111 0.806164 29.5401 0.892528C29.5111 0.662225 29.5111 0.403134 29.4822 0.172831L29.3086 0.144043C29.3375 0.518285 29.3665 0.892528 29.3954 1.26677C29.3954 1.41071 29.3954 1.52586 29.4243 1.64101Z" fill="white"/>
<path d="M32.2889 4.54837C32.2599 3.62716 32.1442 2.67716 31.9706 1.75595C31.9127 1.35292 31.8838 0.978673 31.8838 0.575642L31.6523 0.518066C31.6813 1.29534 31.797 2.07261 31.9417 2.8211C32.0574 3.88625 32.1153 4.92261 32.1153 5.98776C32.1442 6.96655 32.231 7.97413 32.4046 8.92413C32.4046 8.95292 32.4046 8.9817 32.4046 8.9817L32.665 9.09686C32.5493 8.5211 32.4335 7.91655 32.4046 7.31201C32.3178 6.41958 32.3178 5.49837 32.2889 4.54837Z" fill="white"/>
<path d="M31.537 28.9028L31.3055 28.9604C30.8715 30.774 30.5822 32.6453 30.3218 34.5165C30.1771 35.4665 30.0614 36.4452 29.9746 37.3952L30.2061 37.3377C30.3797 35.5528 30.6401 33.7392 30.9294 31.9543C31.0741 30.9468 31.2766 29.9104 31.537 28.9028Z" fill="white"/>
<path d="M30.0037 34.7183C30.0616 33.9123 30.0327 33.135 30.0327 32.3577C30.0616 31.2926 30.2352 30.4289 30.3509 29.3638L30.1484 29.4213C30.0326 30.3426 29.888 31.1198 29.8301 32.041C29.7723 32.8183 29.8301 33.5668 29.8012 34.3441C29.7433 35.2077 29.6276 36.1001 29.454 36.9638C29.4251 37.1365 29.3961 37.338 29.3672 37.5107L29.5697 37.4819C29.5987 37.3668 29.5987 37.2229 29.6276 37.1077C29.8012 36.3016 29.9458 35.5244 30.0037 34.7183Z" fill="white"/>
<path d="M31.248 0.460429L31.0455 0.431641C31.0165 1.43922 31.0165 2.418 30.9876 3.42558C30.9587 5.09528 31.0165 6.76497 31.0165 8.43467L31.2191 8.52104C31.2191 7.51346 31.1901 6.53467 31.1901 5.5271C31.1901 3.82861 31.2191 2.13013 31.248 0.460429Z" fill="white"/>
<path d="M39.6099 6.99547C39.581 6.82274 39.552 6.65001 39.5231 6.47728C39.4942 6.30456 39.4942 6.16062 39.4652 5.98789C39.4652 6.01668 39.4074 6.04547 39.3784 5.98789C39.2627 5.55607 39.1759 5.12425 39.147 4.69244C39.1181 4.49092 39.0891 4.28941 39.0891 4.11668L39.0312 4.08789C39.0891 4.83638 39.2049 5.61365 39.3784 6.33334C39.4942 6.56365 39.552 6.76516 39.6099 6.99547Z" fill="white"/>
<path d="M41.9528 20.5832C41.3452 19.8347 40.6798 19.2014 40.5062 18.1938C40.3326 17.1862 40.4194 16.2362 40.4483 15.2862C40.4772 14.3362 40.3615 13.2999 40.3326 12.3211C40.3036 11.3423 40.3615 10.2483 40.3326 9.21198C40.2458 8.31956 40.0432 7.42713 39.7539 6.59229C39.8407 7.08168 39.9564 7.54229 40.0722 8.03168C40.0722 8.03168 40.0722 8.03168 40.0722 8.06047C40.0722 8.06047 40.0722 8.06047 40.0432 8.06047C39.9854 7.94532 39.9275 7.85895 39.8696 7.7438C40.0143 8.23319 40.1011 8.72259 40.13 9.24077C40.159 9.73016 40.1011 10.2196 40.1011 10.709C40.1011 11.2559 40.1011 11.8029 40.13 12.3499C40.159 13.3286 40.2747 14.3362 40.2458 15.315C40.1879 16.2362 40.2168 17.1574 40.2747 18.0786C40.3904 18.9423 40.8244 19.5756 41.3742 20.2665C41.6924 20.612 41.9818 21.015 42.2132 21.418C42.4158 21.8499 42.5894 22.3393 42.6762 22.7999C42.763 23.2605 42.8787 23.7211 43.0234 24.1529C43.168 24.6135 43.3706 25.0453 43.5731 25.5059C43.7756 25.9377 43.9492 26.3983 44.1228 26.8302C44.1518 26.7438 44.2096 26.6574 44.2385 26.5711C43.7756 25.362 43.197 24.2105 42.9366 22.9438C42.7919 22.0802 42.4736 21.2741 41.9528 20.5832Z" fill="white"/>
<path d="M43.6019 21.8786C43.2836 21.0725 42.8207 20.2953 42.4446 19.518C42.0106 18.5968 41.7213 17.6468 41.5477 16.6392C41.2294 14.4801 41.0847 12.321 41.2005 10.1331C41.2294 8.78011 41.2005 7.42708 41.1137 6.07405L40.9111 5.84375C40.9979 7.19678 41.0269 8.52102 40.9979 9.87405C40.9111 11.9756 40.9979 14.0771 41.2583 16.1786C41.3741 17.1574 41.6055 18.1074 41.9527 18.9998C42.2999 19.8347 42.7918 20.6119 43.1679 21.4468C43.573 22.4256 43.9202 23.4331 44.1806 24.4695L44.5567 25.6786C44.6146 25.5634 44.6435 25.4771 44.6724 25.3619C44.6146 25.218 44.5856 25.0453 44.5278 24.9013C44.2674 23.9225 44.007 22.8574 43.6019 21.8786Z" fill="white"/>
<path d="M43.4579 20.3242C42.8213 18.4818 42.5031 16.553 42.561 14.5954C42.6478 12.6954 42.966 10.8242 43.4868 8.98177L43.3421 8.75146C43.3132 8.83783 43.2843 8.95298 43.2553 9.03934C42.7056 10.9393 42.4163 12.8681 42.3584 14.8257C42.3295 16.6969 42.6188 18.5969 43.2553 20.353C43.5736 21.2454 43.9208 22.109 44.3259 22.9439C44.5863 23.4909 44.8177 24.009 45.0203 24.5848C45.0492 24.4696 45.0781 24.3545 45.136 24.2681C44.9913 23.8651 44.8177 23.4621 44.6152 23.059C44.1523 22.1666 43.7761 21.2454 43.4579 20.3242Z" fill="white"/>
<path d="M44.1227 15.6606C44.1516 16.697 44.2384 17.7334 44.412 18.7409C44.5856 19.7773 44.8749 20.8425 45.1064 21.8788L45.1353 21.9364V21.1015C44.9617 20.4394 44.8171 19.7485 44.6724 19.0864C44.2384 16.9561 44.2384 14.7682 44.2963 12.6091C44.2963 11.947 44.3252 11.2849 44.3542 10.6515C44.2963 10.5076 44.2384 10.3637 44.1516 10.2197C44.1227 10.9682 44.0938 11.7167 44.0938 12.4652C44.0938 13.5303 44.0938 14.5955 44.1227 15.6606Z" fill="white"/>
<path d="M21.6992 0C21.6992 0.201515 21.7282 0.40303 21.7282 0.633333C21.9017 3.02273 22.0175 5.38333 22.0753 7.77273H22.2779C22.22 5.18182 22.0753 2.59091 21.8728 0H21.6992Z" fill="white"/>
<path d="M22.6548 5.78636C22.6838 5.18182 22.6838 4.54848 22.6259 3.94394C22.5102 2.67727 22.3366 1.43939 22.2787 0.201515C22.2787 0.143939 22.2787 0.0863636 22.2787 0H22.0762C22.1051 0.604545 22.163 1.1803 22.2498 1.75606C22.3655 2.64848 22.568 3.54091 22.597 4.43333C22.6259 5.32576 22.568 6.27576 22.5391 7.19697C22.5391 7.34091 22.5391 7.45606 22.5391 7.57121H22.568C22.568 6.99545 22.597 6.39091 22.6548 5.78636Z" fill="white"/>
<path d="M25.1428 0H24.9692C24.9692 1.72727 24.9982 3.48333 24.9692 5.21061C24.9403 6.07424 24.9114 6.90909 24.8535 7.77273H25.0271C25.2296 5.21061 25.1428 2.59091 25.1428 0Z" fill="white"/>
<path d="M26.9946 4.83636C27.1682 4.05909 27.226 3.25303 27.1971 2.44697C27.1682 1.64091 27.1103 0.806061 27.0814 0H26.9078C26.9367 0.604545 26.9656 1.1803 26.9946 1.75606C27.0524 2.64848 27.0235 3.54091 26.9078 4.40455C26.7631 5.18182 26.5606 5.90152 26.4448 6.67879C26.387 7.02424 26.358 7.39848 26.3291 7.77273H26.5027C26.5027 7.57121 26.5316 7.3697 26.5316 7.16818C26.6474 6.39091 26.792 5.61364 26.9946 4.83636Z" fill="white"/>
<path d="M25.6637 33.3075C25.8084 34.7757 26.0398 36.2151 26.2424 37.6833H26.387C26.2424 36.4454 26.0688 35.2075 25.9241 33.9984C25.7505 32.6166 25.6348 31.206 25.6059 29.7954C25.6059 29.9681 25.6059 30.1121 25.5769 30.2848C25.5769 30.2848 25.5769 30.3136 25.548 30.3136H25.5191H25.4901C25.4901 30.3136 25.4901 30.3136 25.4612 30.2848C25.4323 30.1409 25.4033 29.9681 25.4033 29.8242C25.4612 30.9757 25.548 32.156 25.6637 33.3075Z" fill="white"/>
<path d="M27.6894 0H27.4869C27.5158 0.287879 27.5447 0.575758 27.5447 0.892424C27.6026 1.81364 27.6026 2.70606 27.5158 3.62727C27.429 4.43333 27.2554 5.21061 27.1107 5.98788C26.995 6.59242 26.9371 7.19697 26.9082 7.80152H27.0818C27.1686 6.36212 27.5447 4.9803 27.6894 3.54091C27.8051 2.33182 27.8051 1.15152 27.6894 0Z" fill="white"/>
<path d="M25.6056 30.256C25.6345 30.1121 25.6345 29.9393 25.6345 29.7666H25.4609C25.4899 29.9105 25.4899 30.0833 25.5188 30.2272V30.256H25.5477C25.5767 30.2848 25.5767 30.2848 25.6056 30.256C25.6056 30.2848 25.6056 30.256 25.6056 30.256Z" fill="white"/>
<path d="M29.4543 5.46987C29.4253 5.46987 29.4253 5.44108 29.4543 5.46987C29.4253 5.38351 29.3964 5.29714 29.3964 5.23957C29.3964 5.21078 29.3964 5.18199 29.3964 5.1532C29.3675 4.77896 29.3385 4.37593 29.3675 4.00169C29.3675 4.00169 29.3675 4.00169 29.3675 3.9729C29.3675 3.9729 29.3675 3.9729 29.3964 3.9729C29.3964 3.9729 29.3964 3.9729 29.4253 3.9729C29.4253 3.85775 29.4543 3.77138 29.4832 3.65623C29.4253 3.28199 29.4253 2.90775 29.4832 2.53351C29.4832 2.53351 29.4832 2.53351 29.4832 2.50472C29.4832 2.47593 29.4832 2.50472 29.5121 2.50472C29.5121 2.50472 29.5121 2.50472 29.5411 2.50472C29.5411 2.50472 29.5411 2.50472 29.57 2.50472V2.44714C29.5989 2.10169 29.6568 1.75623 29.6568 1.38199C29.6568 1.23805 29.6568 1.06532 29.6279 0.921385C29.5989 0.835022 29.57 0.71987 29.5411 0.633506C29.5411 0.604718 29.4832 0.633506 29.4832 0.662294C29.4832 0.950173 29.5411 1.23805 29.5121 1.55472C29.5121 1.58351 29.5121 1.64108 29.5121 1.66987C29.4832 1.98654 29.4543 2.27442 29.4253 2.59108C29.3964 3.28199 29.3675 3.9729 29.3964 4.66381C29.3964 5.35472 29.4253 6.04563 29.4543 6.73654C29.4543 7.16835 29.4832 7.57138 29.4832 8.0032L29.6279 8.03199C29.6279 7.62896 29.5989 7.22593 29.5989 6.85169L29.4543 5.46987Z" fill="white"/>
<path d="M29.3672 5.21063C29.3672 5.23942 29.3672 5.23942 29.3672 5.21063C29.3961 5.23942 29.3961 5.23942 29.3672 5.21063C29.3961 5.21063 29.3961 5.15306 29.3961 5.12427C29.3672 5.15306 29.3672 5.18184 29.3672 5.21063Z" fill="white"/>
<path d="M29.4252 2.47569C29.3674 2.84993 29.3674 3.22418 29.4252 3.59842L29.4542 3.45448C29.4542 3.42569 29.541 3.42569 29.541 3.45448C29.512 3.79993 29.4831 4.14539 29.512 4.49084C29.512 4.54842 29.512 4.60599 29.512 4.66357C29.541 4.40448 29.5699 4.14539 29.5699 3.8863C29.5699 3.62721 29.541 3.36812 29.541 3.10903C29.541 2.87872 29.541 2.67721 29.4831 2.47569C29.4831 2.47569 29.4831 2.47569 29.4542 2.47569C29.4542 2.47569 29.4542 2.47569 29.4252 2.47569C29.4252 2.4469 29.4252 2.4469 29.4252 2.47569Z" fill="white"/>
<path d="M29.5408 3.48337C29.5408 3.42579 29.4829 3.42579 29.454 3.48337L29.4251 3.62731C29.3961 3.74246 29.3961 3.82882 29.3672 3.94397H29.3961V3.97276C29.3961 4.43337 29.4251 4.89397 29.454 5.38337C29.454 5.38337 29.454 5.38337 29.4829 5.38337C29.5119 5.38337 29.4829 5.38337 29.4829 5.35458C29.5119 5.12428 29.5119 4.92276 29.4829 4.69246C29.4829 4.63488 29.4829 4.57731 29.4829 4.51973C29.4829 4.17428 29.4829 3.82882 29.5408 3.48337Z" fill="white"/>
<path d="M29.4247 3.97264C29.4247 3.94385 29.4247 3.94385 29.4247 3.97264C29.3958 3.94385 29.3958 3.94385 29.3958 3.94385C29.3958 3.94385 29.3958 3.94385 29.3668 3.94385C29.3668 3.94385 29.3668 3.94385 29.3379 3.94385C29.3379 3.94385 29.3379 3.94385 29.3379 3.97264C29.3379 4.34688 29.3379 4.74991 29.3668 5.12415C29.3668 5.15294 29.3668 5.18173 29.3668 5.2393C29.3668 5.29688 29.3958 5.38324 29.3958 5.4696C29.3958 5.4696 29.3958 5.4696 29.3958 5.49839C29.3958 5.49839 29.3958 5.49839 29.4247 5.49839C29.4247 5.4696 29.4247 5.44082 29.4247 5.44082C29.4536 4.89385 29.4247 4.43324 29.4247 3.97264Z" fill="white"/>
<path d="M34.7489 2.24545C34.6911 1.95757 34.6332 1.66969 34.6043 1.4106L34.4307 1.35303C34.4596 1.66969 34.5175 1.98636 34.6332 2.30303C34.6621 2.3606 34.7489 2.33182 34.7489 2.24545Z" fill="white"/>
<path d="M39.4937 5.21078C39.4937 5.23957 39.4937 5.26836 39.4937 5.32594V5.35472C39.4937 5.4123 39.4937 5.44109 39.4937 5.49866C39.5226 5.67139 39.5226 5.84412 39.5226 6.01684C39.5226 6.18957 39.5515 6.33351 39.5805 6.50624C39.6094 6.67897 39.6383 6.85169 39.6673 7.02442C39.6962 7.28351 39.783 7.51381 39.8698 7.74412C39.9277 7.85927 39.9855 7.97442 40.0434 8.06078C40.0434 8.06078 40.0434 8.06078 40.0723 8.06078C40.0723 8.06078 40.0723 8.06078 40.0723 8.032C39.9566 7.5426 39.8409 7.082 39.7541 6.5926C39.7541 6.53503 39.7251 6.44866 39.7251 6.39109C39.6383 5.81533 39.6383 5.23957 39.5805 4.66381C39.5805 4.60624 39.5805 4.54866 39.5515 4.4623L39.3779 4.31836C39.4069 4.43351 39.4069 4.51987 39.4358 4.63503C39.4358 4.83654 39.4647 5.00927 39.4937 5.21078Z" fill="white"/>
<path d="M39.4069 6.0167C39.4069 6.07427 39.4647 6.04549 39.4937 6.0167C39.5226 5.98791 39.4937 6.0167 39.4937 6.0167C39.4937 5.84397 39.4937 5.67124 39.4647 5.49852V5.52731C39.4647 5.52731 39.4647 5.55609 39.4358 5.55609H39.4069H39.3779L39.349 5.52731C39.3201 5.35458 39.2911 5.18185 39.2911 5.00912C39.2333 4.75003 39.1754 4.46215 39.2043 4.17427L39.1465 4.1167C39.1465 4.31821 39.1754 4.49094 39.2043 4.69246C39.2333 5.15306 39.2911 5.58488 39.4069 6.0167Z" fill="white"/>
<path d="M39.4943 5.21076C39.4943 5.00925 39.4653 4.83652 39.4364 4.63501C39.4075 4.51985 39.4075 4.43349 39.3785 4.31834L39.3496 4.28955C39.3785 4.37591 39.3785 4.46228 39.3785 4.57743C39.4075 4.77894 39.4653 5.00925 39.4943 5.21076Z" fill="white"/>
<path d="M39.4067 5.35449C39.3489 5.23934 39.3199 5.12418 39.291 5.00903C39.3199 5.18176 39.3199 5.35449 39.3489 5.52722C39.3489 5.52722 39.3489 5.556 39.3778 5.556H39.4067H39.4357L39.4646 5.52722V5.49843C39.4646 5.46964 39.4646 5.41206 39.4935 5.35449C39.4935 5.35449 39.4935 5.35449 39.4646 5.35449C39.4646 5.35449 39.4646 5.35449 39.4357 5.35449C39.4357 5.35449 39.4357 5.35449 39.4067 5.35449Z" fill="white"/>
<path d="M39.2911 5.00916C39.32 5.12432 39.349 5.23947 39.4068 5.35462C39.4068 5.35462 39.4068 5.35462 39.4358 5.35462C39.4358 5.35462 39.4358 5.35462 39.4647 5.35462C39.4936 5.35462 39.4647 5.35462 39.4936 5.35462C39.4936 5.35462 39.4936 5.35462 39.5226 5.35462V5.32583C39.5226 5.29704 39.5226 5.26826 39.5226 5.21068C39.4936 5.00916 39.4358 4.77886 39.4068 4.57735C39.3779 4.49098 39.3779 4.40462 39.3779 4.28947L39.2332 4.17432C39.1754 4.4622 39.2043 4.72129 39.2911 5.00916Z" fill="white"/>
<path d="M22.828 5.9303C22.857 5.29697 22.857 4.66364 22.7991 4.0303C22.7123 2.73485 22.5098 1.46818 22.4519 0.172727V0H22.2783C22.2783 0.0575758 22.2783 0.143939 22.2783 0.201515C22.3362 1.49697 22.5098 2.76364 22.6255 4.05909C22.6834 4.69242 22.6834 5.32576 22.6544 5.95909C22.5966 6.56364 22.5676 7.19697 22.5676 7.80152H22.6834C22.7123 7.51364 22.7123 7.25455 22.7412 6.96667C22.7702 6.59242 22.7991 6.27576 22.828 5.9303Z" fill="white"/>
</g>
<defs>
<clipPath id="clip0_207_2104">
<rect width="160" height="38" fill="white"/>
</clipPath>
</defs>
</svg>
