<svg width="24" height="24" viewBox="0 0 24 24" fill="none" xmlns="http://www.w3.org/2000/svg">
<path fill-rule="evenodd" clip-rule="evenodd" d="M12 0C18.6225 0 24 5.3775 24 12C24 18.6225 18.6225 24 12 24C5.3775 24 0 18.6225 0 12C0 5.3775 5.3775 0 12 0ZM12 3C16.9665 3 21 7.0335 21 12C21 16.9665 16.9665 21 12 21C7.0335 21 3 16.9665 3 12C3 7.0335 7.0335 3 12 3ZM15.915 8.394C16.1265 8.4105 16.3305 8.4615 16.5195 8.5605C16.6455 8.6265 16.761 8.709 16.8615 8.805C17.2575 9.183 17.418 9.7635 17.2725 10.29C17.2095 10.5195 17.091 10.722 16.9365 10.9005C14.778 13.0575 14.121 13.716 12.0435 15.7935C11.9205 15.9 11.7885 15.9915 11.6385 16.0575C11.256 16.2255 10.8105 16.2255 10.4265 16.0575C10.278 15.9915 10.1445 15.9 10.0215 15.7935C8.9655 14.784 8.163 13.9815 7.1535 12.9255C6.999 12.7455 6.8805 12.5445 6.8175 12.315C6.78 12.1785 6.762 12.039 6.7635 11.898C6.7695 11.325 7.1145 10.794 7.6335 10.554C7.803 10.476 7.9875 10.4295 8.175 10.4175C8.3625 10.407 8.5515 10.431 8.73 10.4895C8.9565 10.5645 9.153 10.6905 9.324 10.854L11.0325 12.564C12.696 10.902 13.149 10.4475 14.817 8.781C14.871 8.7345 14.8695 8.736 14.925 8.6925C15.0015 8.637 15.0795 8.586 15.165 8.5455C15.3345 8.4615 15.516 8.4165 15.7035 8.3955C15.774 8.3925 15.843 8.391 15.915 8.394Z" fill="white"/>
</svg>
