<svg width="13" height="14" viewBox="0 0 13 14" fill="none" xmlns="http://www.w3.org/2000/svg">
<path d="M9.312 13.9706C8.37834 13.8318 7.49083 13.4656 6.72399 12.9026C5.83534 12.2685 5.01902 11.5341 4.29038 10.7133C3.39537 9.73348 2.48397 8.76624 1.69417 7.68561C1.07245 6.81775 0.51631 5.9079 0.212963 4.86227C0.00201657 4.19746 -0.0532189 3.49112 0.0517245 2.8004C0.188367 1.97593 0.614693 1.30544 1.19816 0.744125C1.4388 0.523666 1.70015 0.328145 1.97839 0.160419C2.14403 0.0526226 2.33687 -0.00310078 2.53308 0.000133186C2.7293 0.00336715 2.92029 0.0654168 3.08246 0.178616C3.85935 0.652212 4.4548 1.3837 4.77 2.25168C4.82404 2.37397 4.84507 2.50886 4.83089 2.64231C4.81671 2.77575 4.76784 2.90285 4.68938 3.01036C4.49398 3.28052 4.29038 3.54368 4.09362 3.81383C3.92008 4.05319 3.73971 4.28836 3.58531 4.54032C3.50582 4.65511 3.4637 4.79265 3.46493 4.93339C3.46615 5.07412 3.51067 5.21087 3.59214 5.32419C3.98157 5.8841 4.3587 6.46081 4.7823 6.99412C5.54874 7.96604 6.39739 8.86679 7.31839 9.68589C7.52335 9.86646 7.74334 10.026 7.96197 10.1898C8.0551 10.264 8.16705 10.3092 8.28452 10.3201C8.40199 10.331 8.52006 10.3072 8.62469 10.2514C8.85898 10.1331 9.08703 10.0023 9.30791 9.85946C9.61399 9.6593 9.9146 9.45353 10.2152 9.25616C10.3391 9.17492 10.4826 9.13036 10.6297 9.12739C10.7768 9.12443 10.9218 9.16318 11.0487 9.23936C11.824 9.6334 12.456 10.271 12.8524 11.0591C12.9639 11.2559 13.0141 11.4828 12.9966 11.7096C12.979 11.9364 12.8944 12.1523 12.754 12.3287C11.9984 13.3449 11.0323 13.972 9.7479 14C9.6022 13.9978 9.45672 13.988 9.312 13.9706Z" fill="white"/>
</svg>
