<svg width="36" height="38" viewBox="0 0 36 38" fill="none" xmlns="http://www.w3.org/2000/svg">
<g filter="url(#filter0_d_158_1068)">
<path fill-rule="evenodd" clip-rule="evenodd" d="M15.6991 21.8624C15.8816 22.1236 15.8654 22.4749 15.6604 22.7199C15.4554 22.9636 15.1129 23.0399 14.8241 22.9061C11.2904 21.0699 7.9616 17.5111 9.7741 12.5874C11.3741 8.24238 17.8154 6.61863 16.7916 3.75238C16.7129 3.56738 16.7429 3.35488 16.8691 3.19863C16.9954 3.04238 17.1954 2.97738 17.3941 3.00613C18.9016 3.22238 20.1716 4.40238 20.4116 6.05238C20.6679 7.81238 19.1104 9.39488 19.8641 12.0311C20.2479 13.3724 21.7479 13.7124 22.0791 13.4836C22.4041 13.2574 22.0054 12.9911 21.7579 12.2136C21.2029 10.4699 21.8404 9.13988 22.7104 8.19988C23.0379 7.84738 23.7116 7.99738 23.6729 8.69613C23.6154 9.71113 24.2266 10.4974 25.2029 11.6474C27.2979 14.1161 26.7803 17.4686 26.3216 18.6711C25.6866 20.3299 24.3704 21.6461 22.9429 22.5861C22.6641 22.7699 22.2966 22.7374 22.0529 22.5086C21.8091 22.2811 21.7541 21.9161 21.9191 21.6249C22.4091 20.9349 22.7729 20.1649 22.8154 19.3424C22.8766 18.1349 22.2991 17.2186 21.9704 16.7374C21.8866 16.6161 21.7441 16.5486 21.5979 16.5599C21.4504 16.5711 21.3079 16.6549 21.2579 16.7924C20.8954 17.7849 19.7941 19.1474 19.0766 19.1886C18.5441 19.1349 17.5641 18.4124 17.1254 17.0411C16.8116 16.0624 16.8041 14.6286 16.8116 13.7736C16.8141 13.6374 16.7404 13.5111 16.6216 13.4449C16.5029 13.3799 16.3566 13.3849 16.2429 13.4586C15.4529 14.0924 14.2516 15.5624 14.3079 18.2549C14.3366 19.6661 14.9629 20.8961 15.6991 21.8624Z" fill="white"/>
</g>
<defs>
<filter id="filter0_d_158_1068" x="0.263672" y="-0.000488281" width="35.4707" height="37.9719" filterUnits="userSpaceOnUse" color-interpolation-filters="sRGB">
<feFlood flood-opacity="0" result="BackgroundImageFix"/>
<feColorMatrix in="SourceAlpha" type="matrix" values="0 0 0 0 0 0 0 0 0 0 0 0 0 0 0 0 0 0 127 0" result="hardAlpha"/>
<feOffset dy="6"/>
<feGaussianBlur stdDeviation="4.5"/>
<feComposite in2="hardAlpha" operator="out"/>
<feColorMatrix type="matrix" values="0 0 0 0 0.937255 0 0 0 0 0.435294 0 0 0 0 0.180392 0 0 0 1 0"/>
<feBlend mode="normal" in2="BackgroundImageFix" result="effect1_dropShadow_158_1068"/>
<feBlend mode="normal" in="SourceGraphic" in2="effect1_dropShadow_158_1068" result="shape"/>
</filter>
</defs>
</svg>
