<svg width="20" height="20" viewBox="0 0 20 20" fill="none" xmlns="http://www.w3.org/2000/svg">
<g clip-path="url(#clip0_158_1077)">
<path fill-rule="evenodd" clip-rule="evenodd" d="M13.9013 5C14.5263 5 15.0638 5.475 15.1388 6.1C15.1388 6.1 15.2137 6.75 15.2887 7.3375C15.3637 7.9125 15.7638 8.3875 16.3013 8.5625C16.3763 8.5875 17.6763 8.6 17.6763 8.6C18.2887 8.6875 18.7513 9.2125 18.7513 9.8375V12.5C19.4388 12.5 20.0012 13.0625 20.0012 13.75C20.0012 14.4375 19.4388 15 18.7513 15H17.5013C17.5013 16.375 16.3763 17.5 15.0013 17.5C13.6263 17.5 12.5013 16.375 12.5013 15H7.50125C7.50125 16.375 6.37625 17.5 5.00125 17.5C3.62625 17.5 2.50125 16.375 2.50125 15H1.25125C0.56375 15 0.00125 14.4375 0.00125 13.75C0.00125 13.0625 0.56375 12.5 1.25125 12.5H8.75375C9.415 12.5 10.05 12.2362 10.5188 11.7688C10.9875 11.3 11.2513 10.6637 11.2513 10V6.25C11.2513 5.5625 11.8138 5 12.5013 5H13.9013ZM15.0013 16.25C14.3138 16.25 13.7513 15.6875 13.7513 15C13.7513 14.3125 14.3138 13.75 15.0013 13.75C15.6888 13.75 16.2513 14.3125 16.2513 15C16.2513 15.6875 15.6888 16.25 15.0013 16.25ZM5.00125 16.25C4.31375 16.25 3.75125 15.6875 3.75125 15C3.75125 14.3125 4.31375 13.75 5.00125 13.75C5.68875 13.75 6.25125 14.3125 6.25125 15C6.25125 15.6875 5.68875 16.25 5.00125 16.25ZM8.36375 2.5C8.79875 2.5 9.215 2.6725 9.52125 2.97875C9.8275 3.28625 10 3.7025 10 4.13625V9.6125C10 10.0475 9.8275 10.4637 9.52125 10.7712C9.215 11.0775 8.79875 11.25 8.36375 11.25H1.6375C1.2025 11.25 0.78625 11.0775 0.48 10.7712C0.1725 10.4637 0 10.0475 0 9.6125V4.13625C0 3.7025 0.1725 3.28625 0.48 2.97875C0.78625 2.6725 1.2025 2.5 1.6375 2.5H8.36375ZM13.8013 8.75C13.9138 8.75 14.0388 8.7 14.1138 8.6125C14.2013 8.51375 14.2387 8.4 14.2262 8.275C14.1762 7.8 14.1013 7.075 14.0638 6.63875C14.0388 6.4125 13.8512 6.25 13.6263 6.25H12.9387C12.6887 6.25 12.5013 6.45 12.5013 6.6875V8.3125C12.5013 8.4375 12.5512 8.5375 12.6262 8.625C12.7137 8.7 12.8137 8.75 12.9387 8.75H13.8013Z" fill="white"/>
</g>
<defs>
<clipPath id="clip0_158_1077">
<rect width="20" height="20" fill="white"/>
</clipPath>
</defs>
</svg>
