<svg width="19" height="20" viewBox="0 0 19 20" fill="none" xmlns="http://www.w3.org/2000/svg">
<path fill-rule="evenodd" clip-rule="evenodd" d="M16.5 2.5C17.88 2.5 19 3.62 19 5V15C19 16.38 17.88 17.5 16.5 17.5H2.75C1.37 17.5 0.25 16.38 0.25 15V5C0.25 3.62 1.37 2.5 2.75 2.5H16.5ZM9 14.375C9 14.03 8.72 13.75 8.375 13.75H3.375C3.03 13.75 2.75 14.03 2.75 14.375C2.75 14.72 3.03 15 3.375 15H8.375C8.72 15 9 14.72 9 14.375ZM6.5 11.875C6.5 11.53 6.22 11.25 5.875 11.25H3.375C3.03 11.25 2.75 11.53 2.75 11.875C2.75 12.22 3.03 12.5 3.375 12.5H5.875C6.22 12.5 6.5 12.22 6.5 11.875ZM10.875 11.25H8.375C8.03 11.25 7.75 11.53 7.75 11.875C7.75 12.22 8.03 12.5 8.375 12.5H10.875C11.22 12.5 11.5 12.22 11.5 11.875C11.5 11.53 11.22 11.25 10.875 11.25ZM15.875 11.25H13.375C13.03 11.25 12.75 11.53 12.75 11.875C12.75 12.22 13.03 12.5 13.375 12.5H15.875C16.22 12.5 16.5 12.22 16.5 11.875C16.5 11.53 16.22 11.25 15.875 11.25ZM6.8125 5H3.6875C3.17 5 2.75 5.42 2.75 5.9375V7.8125C2.75 8.33 3.17 8.75 3.6875 8.75H6.8125C7.33 8.75 7.75 8.33 7.75 7.8125V5.9375C7.75 5.42 7.33 5 6.8125 5Z" fill="white"/>
</svg>
